<svg width="88" height="88" viewBox="0 0 88 88" fill="none" xmlns="http://www.w3.org/2000/svg">
<path fill-rule="evenodd" clip-rule="evenodd" d="M37.7972 2.43694C39.2721 0.963913 41.2456 0.0971617 43.3282 0.00768648C45.4108 -0.0817887 47.4513 0.612511 49.0472 1.95361L49.5805 2.44111L57.4972 10.3536H68.6888C70.7905 10.354 72.8145 11.1485 74.3552 12.5779C75.8959 14.0074 76.8396 15.9662 76.9972 18.0619L77.0222 18.6869V29.8786L84.9388 37.7953C86.413 39.2704 87.2805 41.2447 87.37 43.3283C87.4595 45.4119 86.7645 47.4533 85.4222 49.0494L84.9347 49.5786L77.018 57.4953V68.6869C77.0187 70.7893 76.2246 72.8143 74.7951 74.3559C73.3656 75.8975 71.4062 76.8418 69.3097 76.9995L68.6888 77.0203H57.5013L49.5847 84.9369C48.1095 86.4111 46.1352 87.2786 44.0516 87.3681C41.968 87.4576 39.9266 86.7626 38.3305 85.4203L37.8013 84.9369L29.8847 77.0203H18.6888C16.5864 77.0209 14.5615 76.2269 13.0199 74.7974C11.4783 73.3678 10.534 71.4084 10.3763 69.3119L10.3555 68.6869V57.4953L2.43884 49.5786C0.96465 48.1034 0.0971647 46.1291 0.00768081 44.0456C-0.0818031 41.962 0.61322 39.9206 1.95551 38.3244L2.43884 37.7953L10.3555 29.8786V18.6869C10.3559 16.5853 11.1504 14.5613 12.5798 13.0206C14.0093 11.4799 15.9681 10.5362 18.0638 10.3786L18.6888 10.3536H29.8805L37.7972 2.43694Z" fill="#322847"/>
</svg>
