<svg width="115" height="115" viewBox="0 0 115 115" fill="none" xmlns="http://www.w3.org/2000/svg">
<path fill-rule="evenodd" clip-rule="evenodd" d="M51.1901 15.8304C52.6651 14.3573 54.6385 13.4906 56.7211 13.4011C58.8037 13.3116 60.8443 14.0059 62.4401 15.347L62.9735 15.8345L70.8901 23.747H82.0818C84.1835 23.7474 86.2074 24.5419 87.7481 25.9714C89.2888 27.4008 90.2325 29.3596 90.3901 31.4554L90.4151 32.0804V43.272L98.3318 51.1887C99.806 52.6639 100.673 54.6382 100.763 56.7218C100.852 58.8053 100.157 60.8468 98.8151 62.4429L98.3276 62.972L90.411 70.8887V82.0804C90.4116 84.1828 89.6176 86.2077 88.188 87.7493C86.7585 89.2909 84.7991 90.2352 82.7026 90.3929L82.0818 90.4137H70.8943L62.9776 98.3304C61.5025 99.8046 59.5282 100.672 57.4446 100.762C55.361 100.851 53.3196 100.156 51.7235 98.8137L51.1943 98.3304L43.2776 90.4137H32.0818C29.9794 90.4144 27.9544 89.6203 26.4128 88.1908C24.8712 86.7613 23.927 84.8019 23.7693 82.7054L23.7485 82.0804V70.8887L15.8318 62.972C14.3576 61.4969 13.4901 59.5226 13.4006 57.439C13.3111 55.3554 14.0062 53.314 15.3485 51.7179L15.8318 51.1887L23.7485 43.272V32.0804C23.7488 29.9787 24.5433 27.9548 25.9728 26.4141C27.4022 24.8734 29.361 23.9297 31.4568 23.772L32.0818 23.747H43.2735L51.1901 15.8304Z" fill="#09244B"/>
<path fill-rule="evenodd" clip-rule="evenodd" d="M35.8526 21.2251C36.6516 19.2997 38.1431 17.7438 40.033 16.8641C41.9228 15.9845 44.0737 15.845 46.0613 16.4733L46.7406 16.7196L57.0826 21.0003L67.4224 16.7174C69.3642 15.9135 71.5381 15.873 73.5086 16.604C75.479 17.335 77.1005 18.7836 78.0481 20.6595L78.3104 21.2274L82.5933 31.5671L92.9369 35.8516C94.8634 36.6503 96.4204 38.1423 97.3004 40.0331C98.1804 41.9238 98.3195 44.0758 97.6902 46.0641L97.4423 46.7396L93.1579 57.0832L97.4407 67.4229C98.2459 69.365 98.2872 71.5397 97.5564 73.511C96.8257 75.4823 95.3768 77.1046 93.5002 78.0525L92.9346 78.3094L82.5987 82.5906L78.3142 92.9343C77.5155 94.8608 76.0235 96.4177 74.1327 97.2978C72.242 98.1778 70.09 98.3169 68.1017 97.6876L67.4279 97.4435L57.0842 93.1591L46.7406 97.4435C44.7985 98.2487 42.6238 98.29 40.6525 97.5593C38.6812 96.8285 37.059 95.3796 36.111 93.503L35.8526 92.9336L31.5697 82.5938L21.2261 78.3093C19.2996 77.5106 17.7426 76.0186 16.8626 74.1278C15.9826 72.2371 15.8435 70.0851 16.4728 68.0968L16.7168 67.423L21.0013 57.0793L16.7184 46.7396C15.9145 44.7977 15.874 42.6238 16.605 40.6534C17.3361 38.6829 18.7846 37.0615 20.6605 36.1138L21.2284 35.8516L31.5681 31.5687L35.8526 21.2251Z" fill="#09244B"/>
</svg>
