<svg width="38" height="27" viewBox="0 0 38 27" fill="none" xmlns="http://www.w3.org/2000/svg">
<path d="M36.501 1.37017C37.0165 1.88587 37.3061 2.58521 37.3061 3.31442C37.3061 4.04362 37.0165 4.74296 36.501 5.25867L15.8888 25.8708C15.6164 26.1433 15.293 26.3594 14.9371 26.5069C14.5811 26.6543 14.1997 26.7302 13.8144 26.7302C13.4291 26.7302 13.0476 26.6543 12.6917 26.5069C12.3358 26.3594 12.0124 26.1433 11.74 25.8708L1.49897 15.6317C1.23631 15.378 1.02681 15.0745 0.882688 14.739C0.738563 14.4035 0.662701 14.0427 0.659528 13.6775C0.656355 13.3124 0.725935 12.9503 0.864207 12.6123C1.00248 12.2743 1.20668 11.9673 1.46488 11.7091C1.72309 11.4509 2.03013 11.2467 2.36809 11.1084C2.70606 10.9701 3.06818 10.9006 3.43332 10.9037C3.79846 10.9069 4.15932 10.9828 4.49483 11.1269C4.83034 11.271 5.13379 11.4805 5.38747 11.7432L13.8135 20.1692L32.6106 1.37017C32.866 1.11462 33.1693 0.911897 33.503 0.773587C33.8368 0.635276 34.1945 0.564087 34.5558 0.564087C34.9171 0.564087 35.2748 0.635276 35.6086 0.773587C35.9423 0.911897 36.2456 1.11462 36.501 1.37017Z" fill="white"/>
<path d="M36.501 1.37017C37.0165 1.88587 37.3061 2.58521 37.3061 3.31442C37.3061 4.04362 37.0165 4.74296 36.501 5.25867L15.8888 25.8708C15.6164 26.1433 15.293 26.3594 14.9371 26.5069C14.5811 26.6543 14.1997 26.7302 13.8144 26.7302C13.4291 26.7302 13.0476 26.6543 12.6917 26.5069C12.3358 26.3594 12.0124 26.1433 11.74 25.8708L1.49897 15.6317C1.23631 15.378 1.02681 15.0745 0.882688 14.739C0.738563 14.4035 0.662701 14.0427 0.659528 13.6775C0.656355 13.3124 0.725935 12.9503 0.864207 12.6123C1.00248 12.2743 1.20668 11.9673 1.46488 11.7091C1.72309 11.4509 2.03013 11.2467 2.36809 11.1084C2.70606 10.9701 3.06818 10.9006 3.43332 10.9037C3.79846 10.9069 4.15932 10.9828 4.49483 11.1269C4.83034 11.271 5.13379 11.4805 5.38747 11.7432L13.8135 20.1692L32.6106 1.37017C32.866 1.11462 33.1693 0.911897 33.503 0.773587C33.8368 0.635276 34.1945 0.564087 34.5558 0.564087C34.9171 0.564087 35.2748 0.635276 35.6086 0.773587C35.9423 0.911897 36.2456 1.11462 36.501 1.37017Z" stroke="white"/>
</svg>
