<svg width="52" height="50" viewBox="0 0 52 50" fill="none" xmlns="http://www.w3.org/2000/svg">
<path d="M44.0028 36.8916C48.0913 32.6249 47.6797 27.1458 47.6667 27.0833V10.4166C47.6667 9.86405 47.4384 9.33415 47.0321 8.94345C46.6257 8.55275 46.0746 8.33325 45.5 8.33325H32.5C30.1102 8.33325 28.1667 10.202 28.1667 12.4999V27.0833C28.1667 27.6358 28.3949 28.1657 28.8013 28.5564C29.2076 28.9471 29.7587 29.1666 30.3333 29.1666H37.0023C36.9566 30.1966 36.6365 31.198 36.0728 32.0749C34.9722 33.7437 32.8987 34.8833 29.9065 35.4583L28.1667 35.7916V41.6666H30.3333C36.3632 41.6666 40.963 40.0603 44.0028 36.8916ZM20.1543 36.8916C24.245 32.6249 23.8312 27.1458 23.8182 27.0833V10.4166C23.8182 9.86405 23.5899 9.33415 23.1836 8.94345C22.7772 8.55275 22.2261 8.33325 21.6515 8.33325H8.6515C6.26167 8.33325 4.31817 10.202 4.31817 12.4999V27.0833C4.31817 27.6358 4.54644 28.1657 4.95277 28.5564C5.3591 28.9471 5.9102 29.1666 6.48484 29.1666H13.1538C13.1081 30.1966 12.788 31.198 12.2243 32.0749C11.1237 33.7437 9.05017 34.8833 6.058 35.4583L4.31817 35.7916V41.6666H6.48484C12.5147 41.6666 17.1145 40.0603 20.1543 36.8916Z" fill="#97B6FD" fill-opacity="0.26"/>
</svg>
