<svg width="39" height="42" viewBox="0 0 39 42" fill="none" xmlns="http://www.w3.org/2000/svg">
<path fill-rule="evenodd" clip-rule="evenodd" d="M17.9152 0.572903C18.8582 0.219433 19.8972 0.219433 20.8402 0.572903L35.4235 6.04165C36.2179 6.33943 36.9025 6.8726 37.3857 7.56989C37.8689 8.26719 38.1278 9.09537 38.1277 9.94374V21.1167C38.1278 24.5988 37.1582 28.0122 35.3275 30.9743C33.4969 33.9364 30.8776 36.3302 27.7631 37.8875L20.7756 41.3812C20.3416 41.5983 19.863 41.7113 19.3777 41.7113C18.8924 41.7113 18.4138 41.5983 17.9798 41.3812L10.9923 37.8875C7.87777 36.3302 5.25845 33.9364 3.42783 30.9743C1.59721 28.0122 0.62761 24.5988 0.627686 21.1167V9.94374C0.62758 9.09537 0.886444 8.26719 1.36967 7.56989C1.8529 6.8726 2.53746 6.33943 3.33185 6.04165L17.9152 0.572903ZM19.3777 4.47499L4.79435 9.94374V21.1167C4.79483 23.8247 5.54934 26.4791 6.97334 28.7826C8.39735 31.086 10.4346 32.9474 12.8569 34.1583L19.3777 37.4229L25.8985 34.1625C28.3214 32.9513 30.3591 31.0892 31.7831 28.785C33.2072 26.4807 33.9613 23.8254 33.961 21.1167V9.94374L19.3777 4.47499Z" fill="white"/>
</svg>
