<?xml version="1.0" encoding="UTF-8"?>
<svg xmlns="http://www.w3.org/2000/svg" xmlns:xlink="http://www.w3.org/1999/xlink" width="0" height="0">

<symbol id="telegram" viewBox="0 0 240 240" fill="none" xmlns="http://www.w3.org/2000/svg">
<g clip-path="url(#clip0_80_5)">
<path d="M120 240C186.274 240 240 186.274 240 120C240 53.7258 186.274 0 120 0C53.7258 0 0 53.7258 0 120C0 186.274 53.7258 240 120 240Z" fill="#32AADF"/>
<path d="M81.229 128.772L95.466 168.178C95.466 168.178 97.246 171.865 99.152 171.865C101.058 171.865 129.407 142.373 129.407 142.373L160.932 81.483L81.737 118.6L81.229 128.772Z" fill="#C8DAEA"/>
<path d="M100.106 138.878L97.3731 167.924C97.3731 167.924 96.2291 176.824 105.127 167.924C114.025 159.024 122.542 152.161 122.542 152.161" fill="#A9C6D8"/>
<path d="M81.486 130.178L52.2 120.636C52.2 120.636 48.7 119.216 49.827 115.996C50.059 115.332 50.527 114.767 51.927 113.796C58.416 109.273 172.033 68.436 172.033 68.436C172.033 68.436 175.241 67.355 177.133 68.074C177.601 68.2189 178.022 68.4855 178.353 68.8466C178.685 69.2077 178.914 69.6502 179.018 70.129C179.222 70.9747 179.308 71.8448 179.272 72.714C179.263 73.466 179.172 74.163 179.103 75.256C178.411 86.421 157.703 169.749 157.703 169.749C157.703 169.749 156.464 174.625 152.025 174.792C150.934 174.827 149.847 174.643 148.829 174.249C147.811 173.855 146.883 173.26 146.1 172.5C137.389 165.007 107.281 144.773 100.628 140.323C100.478 140.221 100.352 140.088 100.257 139.932C100.163 139.777 100.103 139.603 100.082 139.423C99.989 138.954 100.499 138.373 100.499 138.373C100.499 138.373 152.925 91.773 154.32 86.881C154.428 86.502 154.02 86.315 153.472 86.481C149.99 87.762 89.628 125.881 82.966 130.088C82.4864 130.233 81.9796 130.264 81.486 130.178Z" fill="white"/>
</g>
<defs>
<linearGradient id="paint0_linear_80_5" x1="120" y1="240" x2="120" y2="0" gradientUnits="userSpaceOnUse">
<stop stop-color="#1D93D2"/>
<stop offset="1" stop-color="#38B0E3"/>
</linearGradient>
<clipPath id="clip0_80_5">
<rect width="240" height="240" fill="white"/>
</clipPath>
</defs>
</symbol>


<symbol id="main-logo" viewBox="0 0 100 100" fill="none" xmlns="http://www.w3.org/2000/svg">
<g clip-path="url(#clip0_180_49)">
<path d="M50 100C77.6142 100 100 77.6142 100 50C100 22.3858 77.6142 0 50 0C22.3858 0 0 22.3858 0 50C0 77.6142 22.3858 100 50 100Z" fill="#33495F"/>
<mask id="mask0_180_49" style="mask-type:luminance" maskUnits="userSpaceOnUse" x="0" y="0" width="100" height="100">
<path d="M100 50C100 77.614 77.613 100 50 100C22.386 100 0 77.614 0 50C0 22.386 22.386 0 50 0H100V50Z" fill="white"/>
</mask>
<g mask="url(#mask0_180_49)">
<path opacity="0.2" d="M31 19.5C33.55 19.05 35.051 17.55 35.5 15C35.95 17.55 37.451 19.05 40 19.5C37.451 19.951 35.95 21.45 35.5 24C35.051 21.45 33.55 19.951 31 19.5Z" fill="white"/>
</g>
<mask id="mask1_180_49" style="mask-type:luminance" maskUnits="userSpaceOnUse" x="0" y="0" width="100" height="100">
<path d="M100 50C100 77.614 77.613 100 50 100C22.386 100 0 77.614 0 50C0 22.386 22.386 0 50 0H100V50Z" fill="white"/>
</mask>
<g mask="url(#mask1_180_49)">
<path opacity="0.1" d="M71 74.5C73.55 74.05 75.051 72.55 75.5 70C75.95 72.55 77.451 74.05 80 74.5C77.451 74.951 75.95 76.45 75.5 79C75.051 76.45 73.55 74.951 71 74.5ZM11 64.5C13.55 64.05 15.051 62.55 15.5 60C15.95 62.55 17.451 64.05 20 64.5C17.451 64.951 15.95 66.45 15.5 69C15.051 66.45 13.55 64.951 11 64.5Z" fill="white"/>
</g>
<mask id="mask2_180_49" style="mask-type:luminance" maskUnits="userSpaceOnUse" x="0" y="0" width="100" height="100">
<path d="M100 50C100 77.614 77.613 100 50 100C22.386 100 0 77.614 0 50C0 22.386 22.386 0 50 0H100V50Z" fill="white"/>
</mask>
<g mask="url(#mask2_180_49)">
<path d="M100 0.1C99.844 0.118 99.883 0.158 99.9 0C76.584 2.979 63.361 12.281 55.865 22.035C55.5999 22.3806 55.3392 22.7297 55.083 23.082L55.075 23.092C47.015 34.196 46.087 45.812 46 49H45L44 52L48 56L51 55V54C53.3737 53.9538 55.7385 53.6951 58.066 53.227L58.068 53.229C58.797 53.047 59 53.305 59 57V66C59 67.809 59.943 68.497 60.945 67.494C63.368 65.066 63.948 64.471 69.445 58.966C73.605 54.799 74.121 52.371 72.402 47.907C83.953 41.369 96.432 27.888 100 0.1Z" fill="#E94B35"/>
<path d="M48 56L44 52L45 49H47L51 53V55L48 56ZM52 28C50.282 27.31 50 27 48 27C46 27 43.817 28.38 41.139 31.063C36.885 35.322 36.289 35.902 32.623 39.571C31.425 40.771 33.263 41 36 41C41.233 41 45.297 40.875 46.791 42.42C48.764 44.46 52 28 52 28ZM100 0C99.361 4.973 98.434 9.579 97.279 13.678C96.23 11.708 94.7169 9.314 92.7789 7.406C90.6279 5.286 87.967 3.774 85.953 2.821C91.979 1.091 96.783 0.412 100 0Z" fill="#C23824"/>
<path opacity="0.3" d="M72.402 47.907C74.121 52.37 73.714 54.695 69.548 58.861C68.704 59.705 61.72 66.72 60.944 67.494C59.941 68.496 59.033 67.809 59 66V65.348C62 62.348 68.689 56.41 70 54C70.768 52.589 70.352 50.346 70 49C66.688 50.76 58.484 53.094 58.068 53.229C54.906 53.875 52.467 53.943 51 54V53.344C51 53.344 80.975 43.681 100 0C96.406 28.047 83.953 41.369 72.402 47.907Z" fill="white"/>
<path d="M77.5 28C73.916 28 71 25.084 71 21.5C71 17.916 73.916 15 77.5 15C81.084 15 84 17.916 84 21.5C84 25.084 81.084 28 77.5 28Z" fill="white"/>
<path d="M77.5 16C78.9587 16 80.3576 16.5795 81.3891 17.6109C82.4205 18.6424 83 20.0413 83 21.5C83 22.9587 82.4205 24.3576 81.3891 25.3891C80.3576 26.4205 78.9587 27 77.5 27C76.0413 27 74.6424 26.4205 73.6109 25.3891C72.5795 24.3576 72 22.9587 72 21.5C72 20.0413 72.5795 18.6424 73.6109 17.6109C74.6424 16.5795 76.0413 16 77.5 16ZM77.5 14C73.363 14 70 17.364 70 21.5C70 25.636 73.363 29 77.5 29C81.637 29 85 25.636 85 21.5C85 17.364 81.637 14 77.5 14Z" fill="#C23824"/>
<path d="M44 52L48 56L13 92L7 86L44 52Z" fill="#D7DCDE"/>
<path d="M43.875 52L45.875 54L7.5 91.5L4.5 88.5L43.875 52Z" fill="#F7F7F7"/>
</g>
</g>
<defs>ss
<clipPath id="clip0_180_49">
<rect width="100" height="100" fill="white"/>
</clipPath>
</defs>
</symbol>


<symbol id="api" viewBox="0 0 256 256" xml:space="preserve">
<defs>
</defs>
<g style="stroke: none; stroke-width: 0; stroke-dasharray: none; stroke-linecap: butt; stroke-linejoin: miter; stroke-miterlimit: 10; fill: none; fill-rule: nonzero; opacity: 1;" transform="translate(1.4065934065934016 1.4065934065934016) scale(2.81 2.81)" >
	<path d="M 78.045 37.212 c -0.264 -2.766 -0.939 -5.411 -1.963 -7.875 C 71.957 19.41 62.17 12.428 50.75 12.428 c -5.328 0 -10.3 1.52 -14.507 4.149 c -6.501 4.063 -11.176 10.777 -12.517 18.627 h -3.127 C 9.775 35.205 1 43.979 1 54.803 v 0 c 0 10.824 8.775 19.599 19.599 19.599 h 48.803 C 80.225 74.402 89 65.627 89 54.803 v 0 C 89 47.082 84.533 40.407 78.045 37.212 z" style="stroke: none; stroke-width: 1; stroke-dasharray: none; stroke-linecap: butt; stroke-linejoin: miter; stroke-miterlimit: 10; fill: rgb(105,227,255); fill-rule: nonzero; opacity: 1;" transform=" matrix(1 0 0 1 0 0) " stroke-linecap="round" />
	<path d="M 11.41 6.978 L 11.41 6.978 c 0.265 -0.11 0.285 -0.354 0.285 -0.427 c 0 -0.072 -0.02 -0.317 -0.285 -0.427 c -0.133 -0.055 -0.237 -0.159 -0.292 -0.292 s -0.055 -0.28 0 -0.413 l 0.352 -0.849 c 0.114 -0.275 0.43 -0.406 0.706 -0.292 c 0.265 0.11 0.452 -0.049 0.503 -0.1 c 0.051 -0.051 0.21 -0.239 0.1 -0.503 c -0.055 -0.133 -0.055 -0.28 0 -0.413 c 0.055 -0.133 0.159 -0.237 0.292 -0.292 l 0.849 -0.352 c 0.275 -0.114 0.591 0.017 0.706 0.292 c 0.11 0.264 0.354 0.285 0.427 0.285 c 0.072 0 0.317 -0.02 0.427 -0.285 c 0.055 -0.133 0.159 -0.237 0.292 -0.292 c 0.133 -0.055 0.28 -0.055 0.413 0 l 0.849 0.352 c 0.133 0.055 0.237 0.159 0.292 0.292 c 0.055 0.133 0.055 0.28 0 0.413 c -0.11 0.265 0.049 0.452 0.1 0.503 c 0.051 0.051 0.239 0.21 0.503 0.1 c 0.133 -0.055 0.28 -0.055 0.413 0 c 0.133 0.055 0.237 0.159 0.292 0.292 l 0.352 0.849 c 0.055 0.133 0.055 0.28 0 0.413 s -0.159 0.237 -0.292 0.292 c -0.264 0.11 -0.285 0.354 -0.285 0.427 s 0.021 0.317 0.285 0.427 c 0.275 0.114 0.406 0.431 0.292 0.706 l -0.352 0.849 c -0.055 0.133 -0.159 0.237 -0.292 0.292 c -0.133 0.055 -0.28 0.055 -0.413 0 c -0.264 -0.109 -0.452 0.049 -0.503 0.1 c -0.051 0.051 -0.21 0.239 -0.1 0.503 c 0.114 0.275 -0.017 0.592 -0.292 0.706 l -0.849 0.352 c -0.067 0.028 -0.137 0.041 -0.207 0.041 s -0.14 -0.014 -0.207 -0.041 c -0.133 -0.055 -0.237 -0.159 -0.292 -0.292 c -0.11 -0.265 -0.354 -0.285 -0.427 -0.285 l 0 0 c -0.072 0 -0.317 0.02 -0.427 0.285 c -0.114 0.275 -0.431 0.406 -0.706 0.292 l -0.849 -0.352 c -0.275 -0.114 -0.406 -0.431 -0.292 -0.706 c 0.11 -0.265 -0.049 -0.452 -0.1 -0.503 c -0.051 -0.051 -0.238 -0.21 -0.503 -0.1 C 11.9 8.938 11.584 8.807 11.47 8.532 l -0.352 -0.849 C 11.004 7.408 11.135 7.092 11.41 6.978 z M 15.053 8.042 c 0.822 0 1.491 -0.669 1.491 -1.491 S 15.875 5.06 15.053 5.06 c -0.822 0 -1.491 0.669 -1.491 1.491 S 14.231 8.042 15.053 8.042 z" style="stroke: none; stroke-width: 1; stroke-dasharray: none; stroke-linecap: butt; stroke-linejoin: miter; stroke-miterlimit: 10; fill: rgb(249,249,249); fill-rule: nonzero; opacity: 1;" transform=" matrix(3.89 0 0 3.89 -1.9444444444444287 -1.9444444444444287) " stroke-linecap="round" />
	<path d="M 42.007 61.715 H 35.14 c -0.552 0 -1 -0.447 -1 -1 V 47.139 c 0 -0.553 0.448 -1 1 -1 h 6.867 c 0.552 0 1 0.447 1 1 s -0.448 1 -1 1 H 36.14 v 11.576 h 5.867 c 0.552 0 1 0.447 1 1 S 42.56 61.715 42.007 61.715 z" style="stroke: none; stroke-width: 1; stroke-dasharray: none; stroke-linecap: butt; stroke-linejoin: miter; stroke-miterlimit: 10; fill: rgb(0,0,0); fill-rule: nonzero; opacity: 1;" transform=" matrix(1 0 0 1 0 0) " stroke-linecap="round" />
	<path d="M 39.925 54.927 H 35.14 c -0.552 0 -1 -0.447 -1 -1 s 0.448 -1 1 -1 h 4.785 c 0.552 0 1 0.447 1 1 S 40.478 54.927 39.925 54.927 z" style="stroke: none; stroke-width: 1; stroke-dasharray: none; stroke-linecap: butt; stroke-linejoin: miter; stroke-miterlimit: 10; fill: rgb(0,0,0); fill-rule: nonzero; opacity: 1;" transform=" matrix(1 0 0 1 0 0) " stroke-linecap="round" />
	<path d="M 25.697 54.927 h -4.674 c -0.552 0 -1 -0.447 -1 -1 v -6.788 c 0 -0.553 0.448 -1 1 -1 h 4.674 c 1.983 0 3.596 1.613 3.596 3.596 v 1.597 C 29.293 53.313 27.68 54.927 25.697 54.927 z M 22.023 52.927 h 3.674 c 0.88 0 1.596 -0.716 1.596 -1.596 v -1.597 c 0 -0.88 -0.716 -1.596 -1.596 -1.596 h -3.674 V 52.927 z" style="stroke: none; stroke-width: 1; stroke-dasharray: none; stroke-linecap: butt; stroke-linejoin: miter; stroke-miterlimit: 10; fill: rgb(0,0,0); fill-rule: nonzero; opacity: 1;" transform=" matrix(1 0 0 1 0 0) " stroke-linecap="round" />
	<path d="M 28.293 61.715 c -0.552 0 -1 -0.447 -1 -1 v -4.192 c 0 -0.88 -0.716 -1.596 -1.596 -1.596 h -3.674 v 5.788 c 0 0.553 -0.448 1 -1 1 s -1 -0.447 -1 -1 v -6.788 c 0 -0.553 0.448 -1 1 -1 h 4.674 c 1.983 0 3.596 1.613 3.596 3.596 v 4.192 C 29.293 61.268 28.845 61.715 28.293 61.715 z" style="stroke: none; stroke-width: 1; stroke-dasharray: none; stroke-linecap: butt; stroke-linejoin: miter; stroke-miterlimit: 10; fill: rgb(0,0,0); fill-rule: nonzero; opacity: 1;" transform=" matrix(1 0 0 1 0 0) " stroke-linecap="round" />
	<path d="M 68.977 48.139 h -8.564 c -0.553 0 -1 -0.447 -1 -1 s 0.447 -1 1 -1 h 8.564 c 0.553 0 1 0.447 1 1 S 69.529 48.139 68.977 48.139 z" style="stroke: none; stroke-width: 1; stroke-dasharray: none; stroke-linecap: butt; stroke-linejoin: miter; stroke-miterlimit: 10; fill: rgb(0,0,0); fill-rule: nonzero; opacity: 1;" transform=" matrix(1 0 0 1 0 0) " stroke-linecap="round" />
	<path d="M 64.694 61.715 c -0.553 0 -1 -0.447 -1 -1 V 47.139 c 0 -0.553 0.447 -1 1 -1 s 1 0.447 1 1 v 13.576 C 65.694 61.268 65.247 61.715 64.694 61.715 z" style="stroke: none; stroke-width: 1; stroke-dasharray: none; stroke-linecap: butt; stroke-linejoin: miter; stroke-miterlimit: 10; fill: rgb(0,0,0); fill-rule: nonzero; opacity: 1;" transform=" matrix(1 0 0 1 0 0) " stroke-linecap="round" />
	<path d="M 51.715 61.715 h -1.259 c -2.064 0 -3.743 -1.632 -3.743 -3.638 c 0 -0.553 0.447 -1 1 -1 s 1 0.447 1 1 c 0 0.903 0.782 1.638 1.743 1.638 h 1.259 c 1.041 0 1.888 -0.797 1.888 -1.777 v -1.233 c 0 -0.98 -0.847 -1.777 -1.888 -1.777 h -1.113 c -2.145 0 -3.889 -1.694 -3.889 -3.777 v -1.233 c 0 -2.083 1.744 -3.777 3.889 -3.777 h 1.259 c 2.063 0 3.742 1.632 3.742 3.637 c 0 0.553 -0.447 1 -1 1 s -1 -0.447 -1 -1 c 0 -0.902 -0.781 -1.637 -1.742 -1.637 h -1.259 c -1.041 0 -1.889 0.797 -1.889 1.777 v 1.233 c 0 0.98 0.848 1.777 1.889 1.777 h 1.113 c 2.144 0 3.888 1.694 3.888 3.777 v 1.233 C 55.603 60.021 53.858 61.715 51.715 61.715 z" style="stroke: none; stroke-width: 1; stroke-dasharray: none; stroke-linecap: butt; stroke-linejoin: miter; stroke-miterlimit: 10; fill: rgb(0,0,0); fill-rule: nonzero; opacity: 1;" transform=" matrix(1 0 0 1 0 0) " stroke-linecap="round" />
	<path d="M 37.739 82.928 c -0.552 0 -1 -0.447 -1 -1 V 71.279 c 0 -1.063 -0.865 -1.928 -1.927 -1.928 h -2.572 c -1.063 0 -1.927 0.865 -1.927 1.928 v 10.648 c 0 0.553 -0.448 1 -1 1 s -1 -0.447 -1 -1 V 71.279 c 0 -2.166 1.762 -3.928 3.927 -3.928 h 2.572 c 2.166 0 3.927 1.762 3.927 3.928 v 10.648 C 38.739 82.48 38.291 82.928 37.739 82.928 z" style="stroke: none; stroke-width: 1; stroke-dasharray: none; stroke-linecap: butt; stroke-linejoin: miter; stroke-miterlimit: 10; fill: rgb(0,0,0); fill-rule: nonzero; opacity: 1;" transform=" matrix(1 0 0 1 0 0) " stroke-linecap="round" />
	<path d="M 37.739 76.14 h -8.427 c -0.552 0 -1 -0.447 -1 -1 s 0.448 -1 1 -1 h 8.427 c 0.552 0 1 0.447 1 1 S 38.291 76.14 37.739 76.14 z" style="stroke: none; stroke-width: 1; stroke-dasharray: none; stroke-linecap: butt; stroke-linejoin: miter; stroke-miterlimit: 10; fill: rgb(0,0,0); fill-rule: nonzero; opacity: 1;" transform=" matrix(1 0 0 1 0 0) " stroke-linecap="round" />
	<path d="M 58.991 82.928 c -0.553 0 -1 -0.447 -1 -1 V 68.352 c 0 -0.553 0.447 -1 1 -1 s 1 0.447 1 1 v 13.576 C 59.991 82.48 59.544 82.928 58.991 82.928 z" style="stroke: none; stroke-width: 1; stroke-dasharray: none; stroke-linecap: butt; stroke-linejoin: miter; stroke-miterlimit: 10; fill: rgb(0,0,0); fill-rule: nonzero; opacity: 1;" transform=" matrix(1 0 0 1 0 0) " stroke-linecap="round" />
	<path d="M 49.896 76.967 h -4.97 c -0.552 0 -1 -0.447 -1 -1 v -7.615 c 0 -0.553 0.448 -1 1 -1 h 4.97 c 2.01 0 3.645 1.636 3.645 3.646 v 2.324 C 53.54 75.331 51.905 76.967 49.896 76.967 z M 45.925 74.967 h 3.97 c 0.907 0 1.645 -0.738 1.645 -1.646 v -2.324 c 0 -0.907 -0.737 -1.646 -1.645 -1.646 h -3.97 V 74.967 z" style="stroke: none; stroke-width: 1; stroke-dasharray: none; stroke-linecap: butt; stroke-linejoin: miter; stroke-miterlimit: 10; fill: rgb(0,0,0); fill-rule: nonzero; opacity: 1;" transform=" matrix(1 0 0 1 0 0) " stroke-linecap="round" />
	<path d="M 44.925 82.928 c -0.552 0 -1 -0.447 -1 -1 v -5.961 c 0 -0.553 0.448 -1 1 -1 s 1 0.447 1 1 v 5.961 C 45.925 82.48 45.478 82.928 44.925 82.928 z" style="stroke: none; stroke-width: 1; stroke-dasharray: none; stroke-linecap: butt; stroke-linejoin: miter; stroke-miterlimit: 10; fill: rgb(0,0,0); fill-rule: nonzero; opacity: 1;" transform=" matrix(1 0 0 1 0 0) " stroke-linecap="round" />
	<path d="M 69.401 75.401 c -0.553 0 -1 -0.447 -1 -1 s 0.447 -1 1 -1 C 79.656 73.401 88 65.059 88 54.804 c 0 -7.14 -3.983 -13.537 -10.396 -16.694 c -0.312 -0.153 -0.521 -0.457 -0.554 -0.802 c -0.251 -2.616 -0.887 -5.168 -1.892 -7.587 c -0.212 -0.51 0.03 -1.095 0.54 -1.307 c 0.513 -0.212 1.096 0.03 1.308 0.54 c 1.01 2.433 1.674 4.991 1.977 7.614 C 85.793 40.145 90 47.081 90 54.803 C 90 66.161 80.76 75.401 69.401 75.401 z" style="stroke: none; stroke-width: 1; stroke-dasharray: none; stroke-linecap: butt; stroke-linejoin: miter; stroke-miterlimit: 10; fill: rgb(0,0,0); fill-rule: nonzero; opacity: 1;" transform=" matrix(1 0 0 1 0 0) " stroke-linecap="round" />
	<path d="M 20.599 75.401 C 9.241 75.401 0 66.161 0 54.804 c 0 -11.358 9.241 -20.599 20.599 -20.599 h 2.296 c 1.539 -7.625 6.174 -14.323 12.818 -18.475 c 0.468 -0.292 1.085 -0.149 1.378 0.318 c 0.292 0.468 0.15 1.085 -0.318 1.378 c -6.4 4 -10.796 10.542 -12.061 17.947 c -0.082 0.48 -0.499 0.832 -0.986 0.832 h -3.127 C 10.343 36.205 2 44.548 2 54.803 s 8.343 18.599 18.599 18.599 c 0.552 0 1 0.447 1 1 S 21.151 75.401 20.599 75.401 z" style="stroke: none; stroke-width: 1; stroke-dasharray: none; stroke-linecap: butt; stroke-linejoin: miter; stroke-miterlimit: 10; fill: rgb(0,0,0); fill-rule: nonzero; opacity: 1;" transform=" matrix(1 0 0 1 0 0) " stroke-linecap="round" />
	<path d="M 15.978 10.784 c -0.105 0 -0.208 -0.021 -0.305 -0.061 c -0.197 -0.081 -0.35 -0.235 -0.431 -0.431 c -0.043 -0.105 -0.127 -0.127 -0.189 -0.127 c -0.063 0 -0.146 0.022 -0.189 0.127 c -0.168 0.405 -0.635 0.599 -1.041 0.431 l -0.85 -0.352 c -0.406 -0.168 -0.599 -0.636 -0.431 -1.041 c 0.046 -0.11 -0.008 -0.187 -0.044 -0.223 c -0.045 -0.045 -0.12 -0.088 -0.224 -0.045 c -0.406 0.167 -0.873 -0.026 -1.042 -0.431 l -0.352 -0.849 c -0.168 -0.406 0.025 -0.873 0.431 -1.041 h 0 c 0.105 -0.043 0.127 -0.127 0.127 -0.189 c 0 -0.063 -0.022 -0.146 -0.126 -0.189 c -0.197 -0.081 -0.35 -0.235 -0.431 -0.431 c -0.082 -0.197 -0.082 -0.413 0 -0.61 l 0.352 -0.849 c 0.169 -0.406 0.636 -0.599 1.042 -0.431 c 0.105 0.043 0.179 0 0.223 -0.044 c 0.045 -0.045 0.088 -0.119 0.045 -0.224 c -0.081 -0.197 -0.081 -0.413 0 -0.61 c 0.082 -0.197 0.235 -0.35 0.431 -0.431 l 0.849 -0.352 c 0.406 -0.168 0.873 0.026 1.042 0.431 c 0.043 0.104 0.127 0.126 0.189 0.126 c 0.063 0 0.146 -0.022 0.189 -0.126 c 0.082 -0.197 0.235 -0.35 0.432 -0.432 c 0.197 -0.082 0.413 -0.081 0.61 0 l 0.849 0.352 c 0.197 0.082 0.35 0.235 0.432 0.431 c 0.082 0.197 0.082 0.414 0 0.61 c -0.043 0.104 0 0.179 0.044 0.223 c 0.045 0.045 0.119 0.088 0.223 0.045 c 0.197 -0.081 0.414 -0.081 0.61 0 c 0.197 0.082 0.35 0.235 0.432 0.432 l 0.351 0.849 c 0.082 0.197 0.082 0.413 0 0.61 c -0.082 0.197 -0.235 0.35 -0.432 0.432 c -0.104 0.043 -0.126 0.127 -0.126 0.189 c 0 0.062 0.022 0.146 0.127 0.189 c 0.197 0.081 0.35 0.235 0.431 0.432 c 0.082 0.197 0.082 0.413 0 0.61 l -0.352 0.849 c -0.081 0.197 -0.234 0.35 -0.431 0.431 c -0.197 0.081 -0.414 0.081 -0.61 0 c -0.105 -0.044 -0.179 0 -0.223 0.044 c -0.044 0.044 -0.088 0.119 -0.044 0.223 c 0.168 0.406 -0.025 0.873 -0.431 1.041 l -0.849 0.352 C 16.186 10.764 16.083 10.784 15.978 10.784 z M 15.053 9.651 c 0.232 0 0.529 0.117 0.664 0.444 c 0.029 0.07 0.083 0.124 0.153 0.153 c 0.07 0.029 0.147 0.029 0.217 0 l 0.849 -0.352 c 0.144 -0.06 0.213 -0.226 0.153 -0.37 c -0.136 -0.328 -0.008 -0.62 0.156 -0.784 c 0.164 -0.164 0.456 -0.291 0.783 -0.156 c 0.071 0.029 0.146 0.029 0.217 0 c 0.07 -0.029 0.124 -0.083 0.153 -0.153 l 0.352 -0.849 c 0.029 -0.07 0.029 -0.146 0 -0.216 c -0.029 -0.07 -0.083 -0.124 -0.153 -0.153 c -0.327 -0.136 -0.444 -0.432 -0.444 -0.664 c 0 -0.232 0.116 -0.529 0.444 -0.664 c 0.07 -0.029 0.124 -0.083 0.153 -0.153 c 0.029 -0.07 0.029 -0.147 0 -0.217 l -0.352 -0.849 c -0.029 -0.07 -0.083 -0.124 -0.153 -0.153 c -0.07 -0.029 -0.147 -0.029 -0.217 0 c -0.326 0.136 -0.619 0.009 -0.784 -0.156 c -0.164 -0.163 -0.291 -0.456 -0.155 -0.783 c 0.029 -0.07 0.029 -0.147 0 -0.217 c -0.029 -0.07 -0.083 -0.124 -0.153 -0.153 l -0.849 -0.352 c -0.071 -0.029 -0.146 -0.029 -0.217 0 c -0.07 0.029 -0.125 0.083 -0.153 0.153 c -0.135 0.327 -0.432 0.444 -0.664 0.444 s -0.529 -0.116 -0.664 -0.443 c -0.06 -0.144 -0.226 -0.213 -0.37 -0.153 L 13.17 3.206 c -0.07 0.029 -0.124 0.083 -0.153 0.153 c -0.029 0.07 -0.029 0.147 0 0.217 c 0.136 0.328 0.008 0.62 -0.157 0.784 c -0.163 0.164 -0.455 0.291 -0.783 0.155 c -0.144 -0.06 -0.31 0.009 -0.37 0.153 l -0.352 0.849 c -0.029 0.07 -0.029 0.147 0 0.216 c 0.029 0.07 0.083 0.125 0.153 0.153 c 0.328 0.136 0.444 0.432 0.444 0.665 c 0 0.232 -0.117 0.528 -0.444 0.664 L 11.41 6.978 l 0.098 0.237 c -0.144 0.06 -0.213 0.226 -0.153 0.37 l 0.352 0.849 c 0.06 0.144 0.227 0.213 0.37 0.153 c 0.327 -0.135 0.619 -0.008 0.783 0.156 c 0.164 0.163 0.292 0.455 0.156 0.783 c -0.06 0.144 0.009 0.31 0.153 0.37 l 0.849 0.352 c 0.144 0.06 0.31 -0.009 0.37 -0.153 C 14.524 9.768 14.82 9.651 15.053 9.651 z M 15.053 8.299 c -0.964 0 -1.748 -0.784 -1.748 -1.748 s 0.784 -1.748 1.748 -1.748 c 0.964 0 1.748 0.784 1.748 1.748 S 16.017 8.299 15.053 8.299 z M 15.053 5.317 c -0.681 0 -1.234 0.554 -1.234 1.234 s 0.554 1.234 1.234 1.234 c 0.68 0 1.234 -0.554 1.234 -1.234 S 15.733 5.317 15.053 5.317 z" style="stroke: none; stroke-width: 1; stroke-dasharray: none; stroke-linecap: butt; stroke-linejoin: miter; stroke-miterlimit: 10; fill: rgb(0,0,0); fill-rule: nonzero; opacity: 1;" transform=" matrix(3.89 0 0 3.89 -1.9444444444444287 -1.9444444444444287) " stroke-linecap="round" />
</g>
</symbol>

<symbol id="bootstrap" viewBox="0 0 256 256" preserveAspectRatio="xMinYMin meet"><path d="M0 222.991C0 241.223 14.779 256 33.009 256H222.99C241.223 256 256 241.221 256 222.991V33.01C256 14.777 241.221 0 222.991 0H33.01C14.777 0 0 14.779 0 33.009V222.99z" fill="#563D7C"/><path d="M106.158 113.238V76.985h31.911c3.04 0 5.97.253 8.792.76 2.822.506 5.319 1.41 7.49 2.713 2.17 1.303 3.907 3.112 5.21 5.427 1.302 2.316 1.954 5.283 1.954 8.9 0 6.513-1.954 11.217-5.862 14.111-3.907 2.895-8.9 4.342-14.979 4.342h-34.516zM72.075 50.5v155h75.112c6.947 0 13.713-.868 20.298-2.605 6.585-1.737 12.446-4.414 17.584-8.032 5.137-3.618 9.226-8.286 12.265-14.002 3.04-5.717 4.559-12.483 4.559-20.298 0-9.697-2.352-17.982-7.055-24.856-4.704-6.875-11.832-11.687-21.384-14.437 6.947-3.328 12.194-7.598 15.74-12.808 3.545-5.21 5.318-11.722 5.318-19.538 0-7.236-1.194-13.314-3.582-18.235-2.388-4.92-5.753-8.864-10.095-11.831-4.341-2.967-9.551-5.102-15.63-6.404-6.078-1.303-12.808-1.954-20.189-1.954H72.075zm34.083 128.515v-42.549h37.121c7.381 0 13.315 1.7 17.802 5.102 4.486 3.401 6.73 9.081 6.73 17.041 0 4.053-.688 7.381-2.063 9.986-1.375 2.605-3.22 4.668-5.536 6.187-2.315 1.52-4.993 2.605-8.032 3.257-3.04.65-6.223.976-9.552.976h-36.47z" fill="#FFF"/></symbol>

<symbol id="css" viewBox="0 0 512 512">
	<path fill="#264de4" d="M71.357 460.819L30.272 0h451.456l-41.129 460.746L255.724 512z"/>
	<path fill="#2965f1" d="M405.388 431.408l35.148-393.73H256v435.146z"/>
	<path fill="#ebebeb" d="M124.46 208.59l5.065 56.517H256V208.59zM119.419 150.715H256V94.197H114.281zM256 355.372l-.248.066-62.944-16.996-4.023-45.076h-56.736l7.919 88.741 115.772 32.14.26-.073z"/>
	<path fill="#fff" d="M255.805 208.59v56.517H325.4l-6.56 73.299-63.035 17.013v58.8l115.864-32.112.85-9.549 13.28-148.792 1.38-15.176 10.203-114.393H255.805v56.518h79.639L330.3 208.59z"/>
</symbol>

<symbol id="figma" viewBox="0 0 38 57" fill="none">
<g clip-path="url(#clip0_1_137)">
<path d="M19 28.5C19 25.9804 20.0009 23.5641 21.7825 21.7825C23.5641 20.0009 25.9804 19 28.5 19C31.0196 19 33.4359 20.0009 35.2175 21.7825C36.9991 23.5641 38 25.9804 38 28.5C38 31.0196 36.9991 33.4359 35.2175 35.2175C33.4359 36.9991 31.0196 38 28.5 38C25.9804 38 23.5641 36.9991 21.7825 35.2175C20.0009 33.4359 19 31.0196 19 28.5Z" fill="#1ABCFE"/>
<path d="M0 47.5C0 44.9804 1.00089 42.5641 2.78249 40.7825C4.56408 39.0009 6.98044 38 9.5 38H19V47.5C19 50.0196 17.9991 52.4359 16.2175 54.2175C14.4359 55.9991 12.0196 57 9.5 57C6.98044 57 4.56408 55.9991 2.78249 54.2175C1.00089 52.4359 0 50.0196 0 47.5H0Z" fill="#0ACF83"/>
<path d="M19 0V19H28.5C31.0196 19 33.4359 17.9991 35.2175 16.2175C36.9991 14.4359 38 12.0196 38 9.5C38 6.98044 36.9991 4.56408 35.2175 2.78249C33.4359 1.00089 31.0196 0 28.5 0L19 0Z" fill="#FF7262"/>
<path d="M0 9.5C0 12.0196 1.00089 14.4359 2.78249 16.2175C4.56408 17.9991 6.98044 19 9.5 19H19V0H9.5C6.98044 0 4.56408 1.00089 2.78249 2.78249C1.00089 4.56408 0 6.98044 0 9.5H0Z" fill="#F24E1E"/>
<path d="M0 28.5C0 31.0196 1.00089 33.4359 2.78249 35.2175C4.56408 36.9991 6.98044 38 9.5 38H19V19H9.5C6.98044 19 4.56408 20.0009 2.78249 21.7825C1.00089 23.5641 0 25.9804 0 28.5H0Z" fill="#A259FF"/>
</g>
<defs>
<clipPath id="clip0_1_137">
<rect width="38" height="57" fill="white"/>
</clipPath>
</defs>
</symbol>


<symbol id="github" viewBox="0 0 548 534" fill="none" xmlns="http://www.w3.org/2000/svg">
<path d="M270.471 0.333313C117.509 0.333313 0.499756 116.461 0.499756 269.422C0.499756 391.726 77.4769 496.384 187.428 533.218C201.545 535.754 206.507 527.042 206.507 519.874C206.507 513.036 206.176 475.32 206.176 452.16C206.176 452.16 128.979 468.703 112.767 419.296C112.767 419.296 100.195 387.204 82.1087 378.933C82.1087 378.933 56.8541 361.618 83.8732 361.949C83.8732 361.949 111.334 364.155 126.442 390.402C150.594 432.971 191.068 420.73 206.838 413.451C209.375 395.806 216.543 383.565 224.483 376.286C162.835 369.448 100.636 360.516 100.636 254.424C100.636 224.096 109.018 208.877 126.663 189.468C123.795 182.299 114.421 152.744 129.53 114.586C152.579 107.418 205.625 144.362 205.625 144.362C227.681 138.186 251.392 134.988 274.882 134.988C298.372 134.988 322.083 138.186 344.14 144.362C344.14 144.362 397.186 107.307 420.235 114.586C435.343 152.854 425.969 182.299 423.102 189.468C440.747 208.988 451.555 224.207 451.555 254.424C451.555 360.846 386.598 369.338 324.951 376.286C335.097 384.998 343.699 401.541 343.699 427.457C343.699 464.622 343.368 510.61 343.368 519.653C343.368 526.821 348.441 535.534 362.447 532.997C472.729 496.384 547.5 391.726 547.5 269.422C547.5 116.461 423.433 0.333313 270.471 0.333313Z" fill="black"/>
</symbol>


  <symbol id="html" viewBox="0 0 512 512">
    <path fill="#E34F26" d="M71,460 L30,0 481,0 440,460 255,512"/>
    <path fill="#EF652A" d="M256,472 L405,431 440,37 256,37"/>
    <path fill="#EBEBEB" d="M256,208 L181,208 176,150 256,150 256,94 255,94 114,94 115,109 129,265 256,265zM256,355 L255,355 192,338 188,293 158,293 132,293 139,382 255,414 256,414z"/>
    <path fill="#FFF" d="M255,208 L255,265 325,265 318,338 255,355 255,414 371,382 372,372 385,223 387,208 371,208zM255,94 L255,129 255,150 255,150 392,150 392,150 392,150 393,138 396,109 397,94z"/>
  </symbol>

<symbol id="js" viewBox="0 0 630 630">
<rect width="630" height="630" fill="#f7df1e"/>
<path d="m423.2 492.19c12.69 20.72 29.2 35.95 58.4 35.95 24.53 0 40.2-12.26 40.2-29.2 0-20.3-16.1-27.49-43.1-39.3l-14.8-6.35c-42.72-18.2-71.1-41-71.1-89.2 0-44.4 33.83-78.2 86.7-78.2 37.64 0 64.7 13.1 84.2 47.4l-46.1 29.6c-10.15-18.2-21.1-25.37-38.1-25.37-17.34 0-28.33 11-28.33 25.37 0 17.76 11 24.95 36.4 35.95l14.8 6.34c50.3 21.57 78.7 43.56 78.7 93 0 53.3-41.87 82.5-98.1 82.5-54.98 0-90.5-26.2-107.88-60.54zm-209.13 5.13c9.3 16.5 17.76 30.45 38.1 30.45 19.45 0 31.72-7.61 31.72-37.2v-201.3h59.2v202.1c0 61.3-35.94 89.2-88.4 89.2-47.4 0-74.85-24.53-88.81-54.075z"/>
</symbol>

<symbol id="nodejs" viewBox="0 0 256 289" preserveAspectRatio="xMidYMid">
    <g>
        <path d="M127.999999,288.463771 C124.024844,288.463771 120.314699,287.403728 116.869564,285.548656 L81.6231884,264.612838 C76.32298,261.697724 78.9730854,260.637682 80.5631458,260.107661 C87.7184259,257.72257 89.0434775,257.192547 96.4637688,252.952381 C97.2587979,252.422361 98.3188405,252.687372 99.1138718,253.217392 L126.144927,269.383024 C127.20497,269.913045 128.530021,269.913045 129.325053,269.383024 L235.064182,208.165634 C236.124225,207.635611 236.654245,206.575571 236.654245,205.250519 L236.654245,83.0807467 C236.654245,81.7556929 236.124225,80.6956526 235.064182,80.1656324 L129.325053,19.2132506 C128.26501,18.6832305 126.939959,18.6832305 126.144927,19.2132506 L20.4057954,80.1656324 C19.3457551,80.6956526 18.8157349,82.0207041 18.8157349,83.0807467 L18.8157349,205.250519 C18.8157349,206.31056 19.3457551,207.635611 20.4057954,208.165634 L49.2919247,224.861286 C64.9275364,232.811595 74.7329196,223.536234 74.7329196,214.260871 L74.7329196,93.681159 C74.7329196,92.0910985 76.0579711,90.5010358 77.9130428,90.5010358 L91.4285716,90.5010358 C93.0186343,90.5010358 94.6086948,91.8260873 94.6086948,93.681159 L94.6086948,214.260871 C94.6086948,235.196689 83.2132512,247.387164 63.3374737,247.387164 C57.2422362,247.387164 52.4720502,247.387164 38.9565214,240.761906 L11.1304347,224.861286 C4.24016581,220.886129 5.68434189e-14,213.46584 5.68434189e-14,205.515528 L5.68434189e-14,83.3457557 C5.68434189e-14,75.3954465 4.24016581,67.9751552 11.1304347,64.0000006 L116.869564,2.78260752 C123.494824,-0.927535841 132.505176,-0.927535841 139.130436,2.78260752 L244.869565,64.0000006 C251.759834,67.9751552 256,75.3954465 256,83.3457557 L256,205.515528 C256,213.46584 251.759834,220.886129 244.869565,224.861286 L139.130436,286.078676 C135.685299,287.668739 131.710145,288.463771 127.999999,288.463771 L127.999999,288.463771 Z M160.596274,204.455488 C114.219461,204.455488 104.679089,183.254659 104.679089,165.233955 C104.679089,163.643893 106.004141,162.053832 107.859212,162.053832 L121.639752,162.053832 C123.229813,162.053832 124.554864,163.113872 124.554864,164.703935 C126.674947,178.749484 132.770187,185.639753 160.861283,185.639753 C183.122154,185.639753 192.662526,180.604556 192.662526,168.67909 C192.662526,161.788821 190.012423,156.753624 155.296065,153.308489 C126.409938,150.393375 108.389235,144.033126 108.389235,120.977226 C108.389235,99.5113875 126.409938,86.7908901 156.621119,86.7908901 C190.542443,86.7908901 207.238095,98.4513472 209.358178,123.89234 C209.358178,124.687371 209.093167,125.482403 208.563147,126.277434 C208.033127,126.807454 207.238095,127.337474 206.443064,127.337474 L192.662526,127.337474 C191.337475,127.337474 190.012423,126.277434 189.747412,124.952382 C186.567289,110.376813 178.351966,105.606625 156.621119,105.606625 C132.240165,105.606625 129.325053,114.086957 129.325053,120.447205 C129.325053,128.132506 132.770187,130.5176 165.631471,134.757766 C198.227744,138.997931 213.598344,145.093169 213.598344,167.884058 C213.333333,191.20497 194.252589,204.455488 160.596274,204.455488 L160.596274,204.455488 Z" fill="#539E43"></path>
    </g>
</symbol>

<symbol id="react" viewBox="-11.5 -10.23174 23 20.46348">
  <title>React Logo</title>
  <circle cx="0" cy="0" r="2.05" fill="#61dafb"/>
  <g stroke="#61dafb" stroke-width="1" fill="none">
    <ellipse rx="11" ry="4.2"/>
    <ellipse rx="11" ry="4.2" transform="rotate(60)"/>
    <ellipse rx="11" ry="4.2" transform="rotate(120)"/>
  </g>
</symbol>

<symbol id="sql" viewBox="-8.78 0 70 70" xmlns:dc="http://purl.org/dc/elements/1.1/" xmlns:cc="http://creativecommons.org/ns#" xmlns:rdf="http://www.w3.org/1999/02/22-rdf-syntax-ns#">
    <metadata>
        <rdf:RDF>
            <cc:Work>
                <dc:subject>
                    Data
                </dc:subject>
                <dc:identifier>
                    sql-database-generic
                </dc:identifier>
                <dc:title>
                    SQL Database (Generic)
                </dc:title>
                <dc:format>
                    image/svg+xml
                </dc:format>
                <dc:publisher>
                    Amido Limited
                </dc:publisher>
                <dc:creator>
                    Richard Slater
                </dc:creator>
                <dc:type rdf:resource="http://purl.org/dc/dcmitype/StillImage"/>
            </cc:Work>
        </rdf:RDF>
    </metadata>
    <path d="m 852.97077,1013.9363 c -6.55238,-0.4723 -13.02857,-2.1216 -17.00034,-4.3296 -2.26232,-1.2576 -3.98589,-2.8032 -4.66223,-4.1807 l -0.4024,-0.8196 0,-25.70807 0,-25.7081 0.31843,-0.6465 c 1.42297,-2.889 5.96432,-5.4935 12.30378,-7.0562 2.15195,-0.5305 5.2586,-1.0588 7.79304,-1.3252 2.58797,-0.2721 9.44765,-0.2307 12.02919,0.073 6.86123,0.8061 12.69967,2.6108 16.29768,5.0377 1.38756,0.9359 2.81137,2.4334 3.29371,3.4642 l 0.41358,0.8838 -0.0354,25.6303 -0.0354,25.63047 -0.33195,0.6744 c -0.18257,0.3709 -0.73406,1.1007 -1.22553,1.6216 -2.99181,3.1715 -9.40919,5.5176 -17.8267,6.5172 -1.71567,0.2038 -9.16916,0.3686 -10.92937,0.2417 z m 12.07501,-22.02839 c -0.0252,-0.0657 -1.00472,-0.93831 -2.17671,-1.93922 -1.17199,-1.00091 -2.18138,-1.86687 -2.24309,-1.92436 -0.0617,-0.0575 0.15481,-0.26106 0.48117,-0.45237 0.32635,-0.19131 0.95163,-0.7235 1.3895,-1.18265 1.2805,-1.34272 1.88466,-3.00131 1.88466,-5.17388 0,-2.1388 -0.65162,-3.8645 -1.95671,-5.1818 -1.31533,-1.3278 -2.82554,-1.8983 -5.02486,-1.8983 -3.39007,0 -5.99368,1.9781 -6.82468,5.1851 -0.28586,1.1031 -0.28432,3.33211 0.003,4.31023 0.74941,2.55136 2.79044,4.40434 5.33062,4.83946 0.8596,0.14724 0.97605,0.21071 1.5621,0.85144 0.34829,0.38078 1.06301,1.14085 1.58827,1.68904 l 0.95501,0.9967 2.53878,0 c 1.39633,0 2.51816,-0.0537 2.49296,-0.11939 z m -8.70653,-7.10848 c -0.61119,-0.31868 -0.84225,-0.56599 -1.19079,-1.27453 -0.26919,-0.54724 -0.31522,-0.85851 -0.31824,-2.15197 -0.003,-1.3143 0.0388,-1.5983 0.31987,-2.169 0.45985,-0.9339 1.09355,-1.376 2.07384,-1.4469 1.36454,-0.099 2.15217,0.5707 2.56498,2.1801 0.50612,1.97321 -0.0504,4.07107 -1.26471,4.76729 -0.63707,0.36527 -1.58737,0.40659 -2.18495,0.095 z m -11.25315,3.66269 c 2.66179,-0.5048 4.1728,-2.0528 4.1728,-4.27495 0,-1.97137 -0.97548,-3.12004 -3.6716,-4.32364 -1.54338,-0.689 -2.10241,-1.1215 -2.10241,-1.6268 0,-0.4188 0.53052,-0.8777 1.14813,-0.993 0.60302,-0.1126 2.20237,0.1652 3.14683,0.5467 l 0.79167,0.3198 0,-1.7524 0,-1.7525 -0.85923,-0.1906 c -0.53103,-0.1178 -1.64689,-0.1885 -2.92137,-0.1849 -1.80528,0 -2.15881,0.044 -2.83818,0.3138 -1.98445,0.7878 -2.92613,2.1298 -2.91107,4.1485 0.0141,1.8898 1.01108,3.06864 3.49227,4.12912 1.46399,0.62572 2.05076,1.10218 2.05076,1.66522 0,1.1965 -1.99362,1.34375 -4.10437,0.30315 -0.57805,-0.28498 -1.09739,-0.54137 -1.1541,-0.56976 -0.0567,-0.0284 -0.10311,0.79023 -0.10311,1.81917 0,1.86239 0.002,1.87137 0.33919,1.99974 1.26979,0.48278 4.07626,0.69787 5.52379,0.42335 z m 30.4308,-1.72766 0,-1.58098 -2.40584,0 -2.40583,0 0,-5.43035 0,-5.4303 -2.13089,0 -2.13088,0 0,7.0113 0,7.01131 4.53672,0 4.53672,0 0,-1.58098 z m -14.84745,-27.70503 c 4.23447,-0.2937 7.4086,-0.8482 10.20178,-1.7821 2.78264,-0.9304 4.42643,-2.0562 4.79413,-3.2834 0.14166,-0.4729 0.13146,-0.6523 -0.0665,-1.1708 -0.88775,-2.3245 -5.84694,-4.1104 -13.42493,-4.8345 -3.24154,-0.3098 -9.13671,-0.2094 -12.22745,0.2081 -4.71604,0.6372 -8.54333,1.8208 -10.2451,3.1683 -3.44251,2.726 0.19793,5.7242 8.66397,7.1354 3.67084,0.6119 8.42674,0.828 12.30414,0.559 z" fill="#00bcf2" transform="translate(-830.906 -943.981)"/>
</symbol>

<symbol xmlns="http://www.w3.org/2000/svg" id="plus-icon" viewBox="0 0 18 18" fill="none"><path d="M9 2V16M2 9H16" stroke="currentColor" stroke-linecap="round" stroke-linejoin="round"></path></symbol>

<symbol id="guarantee" viewBox="0 0 64 64"  xmlns="http://www.w3.org/2000/svg">
<g data-name="Stroke copy 3" id="Stroke_copy_3">
<path d="M42,47A24,24,0,0,1,18,23V7H11V51a4,4,0,0,0,4,4H51V47Z" style="fill:#cff09e"/>
<path d="M15,3H51a0,0,0,0,1,0,0v8a0,0,0,0,1,0,0H15a4,4,0,0,1-4-4V7a4,4,0,0,1,4-4Z" style="fill:#a8dba8"/>
<rect height="6" style="fill:#79bd9a" width="22" x="21" y="19"/>
<circle cx="47" cy="47" r="14" style="fill:#a8dba8"/>
</g>
<g data-name="Stroke Close copy 3" id="Stroke_Close_copy_3">
<path d="M17,8H27a1,1,0,0,0,0-2H17a1,1,0,0,0,0,2Z" style="fill:#3b8686"/>
<path d="M52,32.88V3a1,1,0,0,0-1-1H15a5,5,0,0,0-5,5V51a5,5,0,0,0,5,5H35A15,15,0,1,0,52,32.88ZM15,4H50V6H31a1,1,0,0,0,0,2H50v2H15a3,3,0,0,1,0-6Zm0,50a3,3,0,0,1-3-3V11a4.92,4.92,0,0,0,3,1H50V32.3a14.82,14.82,0,0,0-3-.3A15,15,0,0,0,33.74,54Zm32,6A13,13,0,1,1,60,47,13,13,0,0,1,47,60Z" style="fill:#3b8686"/>
<path d="M53.85,41.22,43.24,51.83l-3.53-3.54a1,1,0,0,0-1.42,1.42L42.54,54a1,1,0,0,0,.7.29A1,1,0,0,0,44,54L55.26,42.64a1,1,0,0,0,0-1.42A1,1,0,0,0,53.85,41.22Z" style="fill:#3b8686"/>
<path d="M21,26H43a1,1,0,0,0,1-1V19a1,1,0,0,0-1-1H21a1,1,0,0,0-1,1v6A1,1,0,0,0,21,26Zm1-6H42v4H22Z" style="fill:#3b8686"/>
<path d="M21,32H37a1,1,0,0,0,0-2H21a1,1,0,0,0,0,2Z" style="fill:#3b8686"/>
<path d="M31,36H21a1,1,0,0,0,0,2H31a1,1,0,0,0,0-2Z" style="fill:#3b8686"/>
<path d="M27,42H21a1,1,0,0,0,0,2h6a1,1,0,0,0,0-2Z" style="fill:#3b8686"/>
</g>
</symbol>

<symbol id="redux" viewBox="0 -6 256 256" xmlns="http://www.w3.org/2000/svg" preserveAspectRatio="xMidYMid"><path d="M177.381 169.733c9.447-.978 16.614-9.122 16.288-18.896-.325-9.773-8.47-17.592-18.243-17.592h-.651c-10.1.326-17.918 8.796-17.592 18.895.326 4.887 2.28 9.122 5.212 12.054-11.076 21.828-28.016 37.791-53.426 51.148-17.266 9.122-35.183 12.38-53.1 10.1-14.66-1.955-26.062-8.47-33.23-19.222-10.424-15.963-11.401-33.23-2.605-50.496 6.19-12.38 15.962-21.502 22.152-26.063-1.303-4.235-3.258-11.402-4.235-16.614-47.237 34.207-42.35 80.468-28.016 102.295 10.75 16.29 32.577 26.389 56.684 26.389 6.515 0 13.03-.652 19.546-2.28 41.699-8.145 73.299-32.905 91.216-69.718zm57.336-40.397c-24.759-28.995-61.245-44.958-102.944-44.958h-5.212c-2.932-5.864-9.122-9.774-15.963-9.774h-.652C99.848 74.93 92.03 83.4 92.355 93.5c.326 9.773 8.47 17.592 18.243 17.592h.651c7.167-.326 13.357-4.887 15.963-11.077h5.864c24.759 0 48.214 7.167 69.39 21.176 16.288 10.751 28.016 24.76 34.531 41.7 5.538 13.683 5.212 27.04-.652 38.443-9.121 17.266-24.432 26.714-44.63 26.714-13.031 0-25.41-3.91-31.926-6.842-3.583 3.258-10.099 8.47-14.66 11.729 14.009 6.515 28.343 10.099 42.025 10.099 31.274 0 54.404-17.267 63.2-34.533 9.447-18.896 8.795-51.474-15.637-79.165zM69.225 175.27c.326 9.774 8.47 17.592 18.243 17.592h.652c10.099-.325 17.917-8.796 17.591-18.895-.325-9.774-8.47-17.592-18.243-17.592h-.651c-.652 0-1.63 0-2.28.325-13.357-22.153-18.895-46.26-16.94-72.323 1.302-19.547 7.818-36.488 19.22-50.497 9.447-12.054 27.69-17.918 40.07-18.243 34.531-.652 49.19 42.351 50.168 59.618 4.235.977 11.402 3.258 16.289 4.887C189.434 27.366 156.857 0 125.584 0c-29.32 0-56.359 21.176-67.11 52.451-14.985 41.7-5.212 81.771 13.031 113.372-1.628 2.28-2.606 5.864-2.28 9.448z" fill="#764ABC"/></symbol>

<symbol version="1.1" id="sass" xmlns="http://www.w3.org/2000/svg" xmlns:xlink="http://www.w3.org/1999/xlink" x="0px" y="0px"
	 viewBox="0 0 547.8 410.6" enable-background="new 0 0 547.8 410.6" xml:space="preserve">
<path fill="#CD6799" d="M471.4,236c-19.1,0.1-35.7,4.7-49.6,11.5c-5.1-10.1-10.2-19.1-11.1-25.7c-1-7.7-2.2-12.4-1-21.6
	c1.2-9.2,6.6-22.3,6.5-23.3s-1.2-5.7-12.2-5.8c-11-0.1-20.5,2.1-21.6,5c-1.1,2.9-3.2,9.5-4.6,16.3c-1.9,10-22,45.7-33.5,64.4
	c-3.7-7.3-6.9-13.7-7.6-18.8c-1-7.7-2.2-12.4-1-21.6c1.2-9.2,6.6-22.3,6.5-23.3c-0.1-1-1.2-5.7-12.2-5.8c-11-0.1-20.5,2.1-21.6,5
	c-1.1,2.9-2.3,9.7-4.6,16.3c-2.3,6.6-29,66.2-36,81.6c-3.6,7.9-6.7,14.2-8.9,18.5c0,0,0,0,0,0s-0.1,0.3-0.4,0.8
	c-1.9,3.7-3,5.7-3,5.7s0,0,0,0.1c-1.5,2.7-3.1,5.2-3.9,5.2c-0.6,0-1.7-7.2,0.2-17c4-20.7,13.5-52.9,13.4-54c0-0.6,1.8-6.2-6.2-9.1
	c-7.8-2.9-10.6,1.9-11.3,1.9c-0.7,0-1.2,1.7-1.2,1.7s8.7-36.2-16.6-36.2c-15.8,0-37.6,17.3-48.4,32.9c-6.8,3.7-21.3,11.6-36.8,20.1
	c-5.9,3.3-12,6.6-17.7,9.7c-0.4-0.4-0.8-0.9-1.2-1.3c-30.6-32.7-87.2-55.8-84.8-99.7c0.9-16,6.4-58,108.7-109
	C233.9,19,300.9,30.5,312.5,56c16.6,36.4-35.9,104-122.9,113.8c-33.2,3.7-50.6-9.1-55-13.9c-4.6-5-5.3-5.3-7-4.3c-2.8,1.5-1,6,0,8.6
	c2.6,6.8,13.3,18.8,31.4,24.7c16,5.2,54.9,8.1,102-10.1c52.7-20.4,93.9-77.1,81.8-124.6C330.7,2,250.7-13.9,175,13
	C130,29,81.2,54.2,46.1,87c-41.7,39-48.3,72.9-45.6,87.1c9.7,50.4,79.2,83.2,107,107.5c-1.4,0.8-2.7,1.5-3.8,2.1
	c-13.9,6.9-66.9,34.6-80.1,63.9c-15,33.2,2.4,57,13.9,60.2c35.7,9.9,72.4-7.9,92.1-37.3c19.7-29.4,17.3-67.6,8.2-85.1
	c-0.1-0.2-0.2-0.4-0.4-0.6c3.6-2.1,7.3-4.3,10.9-6.4c7.1-4.2,14.1-8.1,20.1-11.3c-3.4,9.3-5.9,20.4-7.1,36.4
	c-1.5,18.8,6.2,43.2,16.3,52.8c4.5,4.2,9.8,4.3,13.2,4.3c11.8,0,17.1-9.8,23-21.4c7.2-14.2,13.7-30.7,13.7-30.7s-8.1,44.6,13.9,44.6
	c8,0,16.1-10.4,19.7-15.7c0,0.1,0,0.1,0,0.1s0.2-0.3,0.6-1c0.8-1.3,1.3-2.1,1.3-2.1s0-0.1,0-0.2c3.2-5.6,10.4-18.3,21.1-39.4
	c13.8-27.2,27.1-61.2,27.1-61.2s1.2,8.3,5.3,22.1c2.4,8.1,7.4,17,11.4,25.6c-3.2,4.5-5.2,7-5.2,7s0,0,0.1,0.1
	c-2.6,3.4-5.4,7.1-8.5,10.7c-10.9,13-23.9,27.9-25.7,32.2c-2.1,5.1-1.6,8.8,2.4,11.8c2.9,2.2,8.1,2.5,13.4,2.2
	c9.8-0.7,16.7-3.1,20.1-4.6c5.3-1.9,11.5-4.8,17.3-9.1c10.7-7.9,17.2-19.2,16.6-34.1c-0.3-8.2-3-16.4-6.3-24.1
	c1-1.4,1.9-2.8,2.9-4.2c16.9-24.7,30-51.8,30-51.8s1.2,8.3,5.3,22.1c2,7,6.1,14.6,9.7,22c-15.9,12.9-25.7,27.9-29.2,37.7
	c-6.3,18.2-1.4,26.4,7.9,28.3c4.2,0.9,10.2-1.1,14.6-3c5.6-1.8,12.2-4.9,18.5-9.5c10.7-7.9,21-18.9,20.4-33.8
	c-0.3-6.8-2.1-13.5-4.6-20c13.5-5.6,30.9-8.7,53.1-6.1c47.6,5.6,57,35.3,55.2,47.8c-1.8,12.5-11.8,19.3-15.1,21.4
	c-3.3,2.1-4.4,2.8-4.1,4.3c0.4,2.2,2,2.1,4.8,1.7c3.9-0.7,25-10.1,25.9-33.1C548.9,267.8,520.9,235.7,471.4,236z M104.2,359.8
	C88.4,377,66.4,383.5,56.9,378c-10.2-5.9-6.2-31.3,13.2-49.5c11.8-11.1,27-21.4,37.1-27.7c2.3-1.4,5.7-3.4,9.8-5.9
	c0.7-0.4,1.1-0.6,1.1-0.6l0,0c0.8-0.5,1.6-1,2.4-1.5C127.6,318.8,120.8,341.7,104.2,359.8z M219.2,281.6c-5.5,13.4-17,47.7-24,45.8
	c-6-1.6-9.7-27.6-1.2-53.3c4.3-12.9,13.4-28.3,18.7-34.3c8.6-9.6,18.1-12.8,20.4-8.9C236,236,222.6,273.2,219.2,281.6z M314.1,327
	c-2.3,1.2-4.5,2-5.5,1.4c-0.7-0.4,1-2,1-2s11.9-12.8,16.6-18.6c2.7-3.4,5.9-7.4,9.3-11.9c0,0.4,0,0.9,0,1.3
	C335.5,312.5,320.7,322.8,314.1,327z M387.3,310.3c-1.7-1.2-1.4-5.2,4.3-17.7c2.2-4.9,7.4-13.1,16.3-21c1,3.2,1.7,6.3,1.6,9.2
	C409.4,300.1,395.6,307.3,387.3,310.3z"/>
<g>
</g>
<g>
</g>
<g>
</g>
<g>
</g>
<g>
</g>
<g>
</g>
</symbol>

<symbol id='wreath' viewBox="0 0 278 203" fill="none" xmlns="http://www.w3.org/2000/svg">
<path d="M47.6894 14.4031C51.2198 6.75528 52.2469 0 52.2469 0C52.2469 0 46.589 2.89163 40.1057 9.68054C34.2797 16.5978 28.0257 28.0115 30.4894 41.2164C39.3446 31.869 44.7305 22.5247 47.6894 14.4031Z" fill="#598CBC"/>
<path d="M20.7114 97.3739L21.1087 102.867C21.2065 104.034 22.1725 104.927 23.3707 104.762C24.5322 104.667 25.4339 103.561 25.3361 102.433L24.9449 96.9551C32.446 90.8509 37.0799 83.1266 39.7393 76.4783C41.0353 72.8225 42.1968 69.5305 43.0313 67.1676C43.6274 64.707 44.0308 63.2092 44.0308 63.2092C44.0308 63.2092 38.7764 64.5725 32.822 69.7628C28.6802 73.9291 23.3493 81.1703 22.4751 91.4683C22.4598 91.4683 22.4445 91.4592 22.4262 91.4592C21.0231 81.2131 18.5686 73.281 14.9862 67.238C11.4649 59.9844 7.2986 55.8273 7.2986 55.8273C7.2986 55.8273 7.00516 57.7897 6.53749 60.9167C6.20431 64.0804 5.80388 68.4056 6.80342 73.226C8.14225 82.0323 11.9295 92.0033 20.7114 97.3739Z" fill="#598CBC"/>
<path d="M21.7718 68.4331C21.512 69.6313 22.3403 70.6951 23.5386 70.8632C24.6695 71.0252 25.7027 70.1632 25.9625 69.0322L27.0049 63.7472C35.5575 59.7124 40.5521 53.0641 44.9293 47.5712C47.1607 44.4778 48.6554 41.519 49.6244 39.3548C50.7187 37.2243 51.4553 35.9588 51.4553 35.9588C51.4553 35.9588 45.7974 35.8946 39.8735 39.85C34.9125 42.9342 28.9183 48.5341 25.8036 57.7133C25.7577 57.7072 25.718 57.698 25.6752 57.695C26.5127 47.9747 25.4612 40.1862 23.6394 33.8956C21.1116 26.1774 18.5164 21.5832 18.5164 21.5832C17.6881 21.0086 8.05338 48.8428 22.753 63.3254L21.7718 68.4331Z" fill="#598CBC"/>
<path d="M47.8087 161.745C49.6733 163.667 53.1212 167.152 53.3138 166.907C54.3133 167.635 55.7072 167.507 56.4102 166.58C57.1071 165.648 56.9757 164.315 56.0434 163.652C55.8417 163.845 52.3876 160.378 50.6422 158.606C54.888 134.678 47.61 117.291 48.258 115.94C48.258 115.94 42.7285 120.07 40.5063 127.852C37.9325 134.751 37.7277 146.816 46.7541 157.42C46.7113 157.462 46.6624 157.487 46.6227 157.53C46.5524 157.594 46.5249 157.685 46.4699 157.756C36.3553 148.185 27.931 141.436 20.2435 136.334C11.2293 130.842 5.30541 128.25 5.30541 128.216C4.83773 128.118 7.93416 138.233 15.9794 148.213C23.3766 157.328 35.7806 164.16 47.8087 161.745Z" fill="#598CBC"/>
<path d="M77.5475 181.448L85.1893 184.377C86.3172 184.875 87.5796 184.144 87.9128 183.074C88.249 181.882 87.5796 180.815 86.5189 180.348L79.0728 177.465C76.6733 165.012 71.697 155.378 67.6805 148.68C63.7588 141.158 59.7026 136.57 59.8982 136.301C59.8982 136.301 56.0437 142.154 56.707 151.04C56.5848 159.523 62.0348 170.936 75.6677 177.976C75.5974 178.077 75.5087 178.165 75.4507 178.285C61.4694 172.452 49.426 169.869 39.9717 167.442C29.1663 165.443 21.9097 165.08 21.9097 165.08C21.9097 165.08 23.2363 167.507 26.565 170.569C29.9274 173.495 34.4818 177.685 40.3751 180.815C51.7093 186.721 66.6168 188.913 77.5475 181.448Z" fill="#598CBC"/>
<path d="M122.218 186.608L114.268 186.039C108.276 174.711 99.5832 167.406 92.7729 162.454C85.6538 156.927 80.1304 153.865 80.1304 153.865C80.1304 153.865 79.9592 155.46 80.1946 158.19C80.3902 160.919 81.026 164.905 83.2574 168.806C86.8184 176.334 95.9304 185.092 111.03 187.592C111.003 187.684 110.948 187.769 110.936 187.87C110.933 187.886 110.936 187.901 110.933 187.919C95.7745 186.709 83.9329 188.586 74.2707 190.465C63.826 192.898 56.9729 195.457 56.9729 195.457C56.9729 195.42 66.684 201.246 79.5955 202.512C91.7305 203.481 105.663 200.461 113.879 190.276L122.044 190.866C123.214 190.967 124.238 190.065 124.275 188.87C124.309 187.669 123.376 186.706 122.218 186.608Z" fill="#598CBC"/>
<path d="M28.2369 132.52L31.3547 139.492C31.856 140.592 33.0848 141.094 34.1149 140.495C35.148 139.895 35.5851 138.563 35.1205 137.502L32.128 130.796C38.4584 121.161 41.9553 111.279 43.1046 103.496C45.2962 94.846 44.4006 88.2894 44.7644 88.1274C44.7644 88.1274 38.9078 90.6522 33.8856 97.7713C29.163 103.982 24.9784 114.938 29.1141 128.191C28.9613 128.207 28.8085 128.201 28.6617 128.25C23.1505 115.57 17.407 106.153 11.963 99.2751C5.63875 91.6548 0.0816878 87.6261 0.0816878 87.6261C0.0816878 87.6261 -0.181187 90.0225 0.479058 93.8495C1.00787 97.6704 2.04714 102.965 3.80779 108.454C8.07493 118.862 15.7595 130.23 28.2369 132.52Z" fill="#598CBC"/>
<path d="M246.609 41.2164C249.07 28.0115 242.813 16.5978 236.959 9.68054C230.47 2.89163 224.849 0 224.849 0C224.849 0 225.845 6.75528 229.376 14.4031C232.365 22.5247 237.76 31.869 246.609 41.2164Z" fill="#598CBC"/>
<path d="M254.652 91.4592C254.642 91.4592 254.633 91.4623 254.621 91.4623C253.738 81.1704 248.382 73.9291 244.241 69.7629C238.289 64.5726 233.062 63.2093 233.062 63.2093C233.062 63.2093 233.432 64.7101 234.068 67.1677C234.896 69.5305 236.055 72.8226 237.357 76.4784C240.019 83.1236 244.647 90.8418 252.139 96.9429L251.726 102.433C251.662 103.561 252.561 104.664 253.722 104.762C254.86 104.927 255.917 104.034 255.984 102.867L256.382 97.3525C265.145 91.9697 268.954 82.0202 270.296 73.223C271.326 68.3996 270.858 64.0744 270.556 60.9137C270.091 57.7898 269.794 55.8243 269.794 55.8243C269.794 55.8243 265.601 59.9845 262.076 67.235C258.497 73.2811 256.064 81.2132 254.652 91.4592Z" fill="#598CBC"/>
<path d="M251.295 57.7194C248.171 48.5401 242.156 42.9403 237.225 39.8561C231.301 35.8977 225.644 35.9649 225.644 35.9649C225.644 35.9649 226.344 37.2304 227.478 39.3609C228.44 41.522 229.944 44.4839 232.167 47.5773C236.553 53.0701 241.511 59.7184 250.082 63.7533L251.103 69.0383C251.359 70.1693 252.429 71.0313 253.56 70.8692C254.731 70.7011 255.584 69.6374 255.324 68.4392L254.343 63.3376C269.045 48.858 259.414 21.0238 258.579 21.5954C258.579 21.5954 255.987 26.1896 253.463 33.9077C251.616 40.1984 250.574 47.9869 251.421 57.7102C251.378 57.7041 251.338 57.7132 251.295 57.7194Z" fill="#598CBC"/>
<path d="M256.856 136.338C249.162 141.439 240.704 148.195 230.608 157.771C230.547 157.698 230.513 157.6 230.437 157.533C230.4 157.496 230.36 157.472 230.321 157.435C239.338 146.828 239.167 134.757 236.596 127.855C234.337 120.07 228.844 115.943 228.844 115.943C229.486 117.294 222.214 134.681 226.454 158.609C224.715 160.382 221.26 163.851 221.056 163.655C220.123 164.319 219.964 165.651 220.655 166.584C221.392 167.513 222.786 167.641 223.782 166.911C223.975 167.152 227.423 163.664 229.287 161.748C241.325 164.163 253.723 157.334 261.114 148.216C269.165 138.236 272.258 128.121 271.757 128.219C271.76 128.253 265.87 130.845 256.856 136.338Z" fill="#598CBC"/>
<path d="M201.646 178.285C201.588 178.168 201.502 178.08 201.435 177.976C215.04 170.933 220.515 159.526 220.39 151.04C221.056 142.154 217.195 136.301 217.195 136.301C217.394 136.57 213.335 141.158 209.413 148.68C205.403 155.378 200.426 165.012 198.018 177.468L190.575 180.348C189.514 180.812 188.851 181.882 189.181 183.074C189.514 184.144 190.779 184.875 191.907 184.377L199.549 181.448C210.477 188.91 225.387 186.721 236.721 180.815C242.578 177.688 247.172 173.495 250.532 170.569C253.827 167.507 255.19 165.08 255.19 165.08C255.19 165.08 247.903 165.443 237.094 167.442C227.64 169.873 215.624 172.455 201.646 178.285Z" fill="#598CBC"/>
<path d="M166.164 187.919C166.164 187.901 166.164 187.886 166.164 187.87C166.148 187.772 166.121 187.681 166.099 187.586C181.184 185.083 190.281 176.328 193.842 168.806C196.037 164.908 196.678 160.919 196.902 158.19C197.137 155.46 196.938 153.865 196.938 153.865C196.938 153.865 191.445 156.927 184.323 162.454C177.522 167.406 168.826 174.711 162.838 186.039L154.851 186.608C153.726 186.706 152.791 187.672 152.791 188.867C152.855 190.065 153.854 190.967 155.052 190.863L163.22 190.273C171.436 200.458 185.366 203.478 197.504 202.509C210.412 201.243 220.126 195.42 220.126 195.454C220.126 195.454 213.27 192.895 202.829 190.462C193.166 188.582 181.322 186.709 166.164 187.919Z" fill="#598CBC"/>
<path d="M277.014 87.6291C277.014 87.6291 271.457 91.6578 265.105 99.2781C259.686 106.156 253.952 115.573 248.434 128.253C248.3 128.207 248.153 128.213 248.006 128.197C252.118 114.944 247.939 103.988 243.217 97.7742C238.188 90.6552 232.335 88.1304 232.335 88.1304C232.698 88.2924 231.766 94.849 234.031 103.499C235.153 111.273 238.638 121.143 244.98 130.768L241.951 137.505C241.483 138.566 241.951 139.895 242.948 140.498C244.014 141.097 245.209 140.595 245.747 139.495L248.862 132.523C261.337 130.233 269.027 118.862 273.258 108.46C275.055 102.971 276.088 97.6764 276.62 93.8556C277.277 90.0255 277.014 87.6291 277.014 87.6291Z" fill="#598CBC"/>
</symbol>



</svg>
