<svg width="40" height="41" viewBox="0 0 40 41" fill="none" xmlns="http://www.w3.org/2000/svg">
<path d="M10.6687 24.0517L10.6687 24.0518C10.4997 26.9119 11.1413 30.3375 12.9171 32.7177L12.9171 32.7178C14.856 35.3161 18.0321 36.9583 21.52 36.9583H24.67C27.4085 36.9585 30.047 35.9293 32.0622 34.0751C34.0775 32.2208 35.3222 29.6768 35.5495 26.9478L36.3016 17.9228L35.8033 17.8813L36.3016 17.9227C36.3312 17.5666 36.2867 17.2081 36.1707 16.87C36.0547 16.5319 35.8698 16.2216 35.6277 15.9587L35.2599 16.2973L35.6277 15.9587C35.3857 15.6957 35.0917 15.4858 34.7643 15.3423C34.437 15.1989 34.0835 15.1249 33.7262 15.125C33.7261 15.125 33.7261 15.125 33.726 15.125H22.631C21.9371 15.1241 21.2716 14.8491 20.7795 14.3599C20.2873 13.8707 20.0084 13.2069 20.0033 12.513L20.0033 12.5125C20.0013 12.2793 20.0014 12.0364 20.0015 11.7865C20.0017 10.9773 20.002 10.0948 19.9346 9.23013C19.846 8.09414 19.6381 6.93186 19.1319 5.91826L19.1318 5.91806C18.6955 5.04555 18.2486 4.47665 17.7769 4.12735C17.2905 3.76715 16.8132 3.66667 16.3804 3.66667C15.843 3.66667 15.4289 4.01118 15.1839 4.3576C14.9377 4.70558 14.7749 5.17275 14.8277 5.60758C15.1688 8.48106 14.7029 11.4904 13.6577 14.1991C13.4583 14.7157 13.2453 15.2446 13.0283 15.7835C11.9794 18.3884 10.836 21.2283 10.6687 24.0517ZM23.1555 11.4697L23.1666 11.9583H23.6554H33.7262H33.7263C34.5218 11.9582 35.3088 12.1232 36.0373 12.4428C36.7658 12.7625 37.4201 13.2298 37.9587 13.8153C38.4974 14.4007 38.9086 15.0916 39.1666 15.8442C39.4245 16.5968 39.5234 17.3947 39.4571 18.1875L39.4571 18.1876L38.705 27.2106L38.705 27.2106C38.4118 30.7312 36.8061 34.0131 34.2064 36.4052C31.6066 38.7974 28.2028 40.1251 24.67 40.125L21.52 40.125L21.5185 40.125C19.6106 40.1305 17.7218 39.7445 15.969 38.9911C14.2161 38.2376 12.6364 37.1327 11.3275 35.7445L11.1244 35.5291L10.838 35.6036C9.9268 35.8403 8.98909 35.9595 8.04766 35.9583H8.04704C5.94855 35.9583 4.17912 34.7906 3.0085 32.8501L3.00833 32.8498C1.86363 30.9551 1.25537 28.2951 1.25537 25C1.25537 21.7074 1.86558 19.047 3.00853 17.152L3.00862 17.1518C4.17924 15.2093 5.94862 14.0417 8.04704 14.0417C8.57529 14.0417 9.14939 14.136 9.73847 14.3021L10.1783 14.4261L10.3413 13.9991C11.3057 11.4721 12.0182 8.8044 11.6831 5.98068L11.6831 5.98049C11.3572 3.24219 13.6132 0.5 16.3804 0.5C18.9472 0.5 20.7611 2.09623 21.9643 4.50052C22.9942 6.56216 23.101 9.06398 23.1555 11.4697ZM8.92971 17.9164L9.10775 17.3823L8.55634 17.2686C7.23265 16.9957 6.26586 17.8826 5.72091 18.7877C4.97849 20.0176 4.42204 22.0427 4.42204 25C4.42204 27.9576 4.97858 29.9844 5.71864 31.2141L5.71933 31.2152C6.43858 32.4031 7.27467 32.7917 8.04704 32.7917C8.19066 32.7917 8.33026 32.7872 8.46666 32.7807L9.19607 32.7459L8.8999 32.0785C7.82 29.6447 7.35021 26.5343 7.50866 23.865L7.50869 23.8646C7.60233 22.2606 8.23573 19.9984 8.92971 17.9164Z" fill="white" stroke="white"/>
</svg>
