<?xml version="1.0" encoding="UTF-8"?>
<svg xmlns="http://www.w3.org/2000/svg" xmlns:xlink="http://www.w3.org/1999/xlink" width="0" height="0">
<symbol id="api" viewBox="0 0 256 256" xml:space="preserve">

<defs>
</defs>
<g style="stroke: none; stroke-width: 0; stroke-dasharray: none; stroke-linecap: butt; stroke-linejoin: miter; stroke-miterlimit: 10; fill: none; fill-rule: nonzero; opacity: 1;" transform="translate(1.4065934065934016 1.4065934065934016) scale(2.81 2.81)" >
	<path d="M 78.045 37.212 c -0.264 -2.766 -0.939 -5.411 -1.963 -7.875 C 71.957 19.41 62.17 12.428 50.75 12.428 c -5.328 0 -10.3 1.52 -14.507 4.149 c -6.501 4.063 -11.176 10.777 -12.517 18.627 h -3.127 C 9.775 35.205 1 43.979 1 54.803 v 0 c 0 10.824 8.775 19.599 19.599 19.599 h 48.803 C 80.225 74.402 89 65.627 89 54.803 v 0 C 89 47.082 84.533 40.407 78.045 37.212 z" style="stroke: none; stroke-width: 1; stroke-dasharray: none; stroke-linecap: butt; stroke-linejoin: miter; stroke-miterlimit: 10; fill: rgb(105,227,255); fill-rule: nonzero; opacity: 1;" transform=" matrix(1 0 0 1 0 0) " stroke-linecap="round" />
	<path d="M 11.41 6.978 L 11.41 6.978 c 0.265 -0.11 0.285 -0.354 0.285 -0.427 c 0 -0.072 -0.02 -0.317 -0.285 -0.427 c -0.133 -0.055 -0.237 -0.159 -0.292 -0.292 s -0.055 -0.28 0 -0.413 l 0.352 -0.849 c 0.114 -0.275 0.43 -0.406 0.706 -0.292 c 0.265 0.11 0.452 -0.049 0.503 -0.1 c 0.051 -0.051 0.21 -0.239 0.1 -0.503 c -0.055 -0.133 -0.055 -0.28 0 -0.413 c 0.055 -0.133 0.159 -0.237 0.292 -0.292 l 0.849 -0.352 c 0.275 -0.114 0.591 0.017 0.706 0.292 c 0.11 0.264 0.354 0.285 0.427 0.285 c 0.072 0 0.317 -0.02 0.427 -0.285 c 0.055 -0.133 0.159 -0.237 0.292 -0.292 c 0.133 -0.055 0.28 -0.055 0.413 0 l 0.849 0.352 c 0.133 0.055 0.237 0.159 0.292 0.292 c 0.055 0.133 0.055 0.28 0 0.413 c -0.11 0.265 0.049 0.452 0.1 0.503 c 0.051 0.051 0.239 0.21 0.503 0.1 c 0.133 -0.055 0.28 -0.055 0.413 0 c 0.133 0.055 0.237 0.159 0.292 0.292 l 0.352 0.849 c 0.055 0.133 0.055 0.28 0 0.413 s -0.159 0.237 -0.292 0.292 c -0.264 0.11 -0.285 0.354 -0.285 0.427 s 0.021 0.317 0.285 0.427 c 0.275 0.114 0.406 0.431 0.292 0.706 l -0.352 0.849 c -0.055 0.133 -0.159 0.237 -0.292 0.292 c -0.133 0.055 -0.28 0.055 -0.413 0 c -0.264 -0.109 -0.452 0.049 -0.503 0.1 c -0.051 0.051 -0.21 0.239 -0.1 0.503 c 0.114 0.275 -0.017 0.592 -0.292 0.706 l -0.849 0.352 c -0.067 0.028 -0.137 0.041 -0.207 0.041 s -0.14 -0.014 -0.207 -0.041 c -0.133 -0.055 -0.237 -0.159 -0.292 -0.292 c -0.11 -0.265 -0.354 -0.285 -0.427 -0.285 l 0 0 c -0.072 0 -0.317 0.02 -0.427 0.285 c -0.114 0.275 -0.431 0.406 -0.706 0.292 l -0.849 -0.352 c -0.275 -0.114 -0.406 -0.431 -0.292 -0.706 c 0.11 -0.265 -0.049 -0.452 -0.1 -0.503 c -0.051 -0.051 -0.238 -0.21 -0.503 -0.1 C 11.9 8.938 11.584 8.807 11.47 8.532 l -0.352 -0.849 C 11.004 7.408 11.135 7.092 11.41 6.978 z M 15.053 8.042 c 0.822 0 1.491 -0.669 1.491 -1.491 S 15.875 5.06 15.053 5.06 c -0.822 0 -1.491 0.669 -1.491 1.491 S 14.231 8.042 15.053 8.042 z" style="stroke: none; stroke-width: 1; stroke-dasharray: none; stroke-linecap: butt; stroke-linejoin: miter; stroke-miterlimit: 10; fill: rgb(249,249,249); fill-rule: nonzero; opacity: 1;" transform=" matrix(3.89 0 0 3.89 -1.9444444444444287 -1.9444444444444287) " stroke-linecap="round" />
	<path d="M 42.007 61.715 H 35.14 c -0.552 0 -1 -0.447 -1 -1 V 47.139 c 0 -0.553 0.448 -1 1 -1 h 6.867 c 0.552 0 1 0.447 1 1 s -0.448 1 -1 1 H 36.14 v 11.576 h 5.867 c 0.552 0 1 0.447 1 1 S 42.56 61.715 42.007 61.715 z" style="stroke: none; stroke-width: 1; stroke-dasharray: none; stroke-linecap: butt; stroke-linejoin: miter; stroke-miterlimit: 10; fill: rgb(0,0,0); fill-rule: nonzero; opacity: 1;" transform=" matrix(1 0 0 1 0 0) " stroke-linecap="round" />
	<path d="M 39.925 54.927 H 35.14 c -0.552 0 -1 -0.447 -1 -1 s 0.448 -1 1 -1 h 4.785 c 0.552 0 1 0.447 1 1 S 40.478 54.927 39.925 54.927 z" style="stroke: none; stroke-width: 1; stroke-dasharray: none; stroke-linecap: butt; stroke-linejoin: miter; stroke-miterlimit: 10; fill: rgb(0,0,0); fill-rule: nonzero; opacity: 1;" transform=" matrix(1 0 0 1 0 0) " stroke-linecap="round" />
	<path d="M 25.697 54.927 h -4.674 c -0.552 0 -1 -0.447 -1 -1 v -6.788 c 0 -0.553 0.448 -1 1 -1 h 4.674 c 1.983 0 3.596 1.613 3.596 3.596 v 1.597 C 29.293 53.313 27.68 54.927 25.697 54.927 z M 22.023 52.927 h 3.674 c 0.88 0 1.596 -0.716 1.596 -1.596 v -1.597 c 0 -0.88 -0.716 -1.596 -1.596 -1.596 h -3.674 V 52.927 z" style="stroke: none; stroke-width: 1; stroke-dasharray: none; stroke-linecap: butt; stroke-linejoin: miter; stroke-miterlimit: 10; fill: rgb(0,0,0); fill-rule: nonzero; opacity: 1;" transform=" matrix(1 0 0 1 0 0) " stroke-linecap="round" />
	<path d="M 28.293 61.715 c -0.552 0 -1 -0.447 -1 -1 v -4.192 c 0 -0.88 -0.716 -1.596 -1.596 -1.596 h -3.674 v 5.788 c 0 0.553 -0.448 1 -1 1 s -1 -0.447 -1 -1 v -6.788 c 0 -0.553 0.448 -1 1 -1 h 4.674 c 1.983 0 3.596 1.613 3.596 3.596 v 4.192 C 29.293 61.268 28.845 61.715 28.293 61.715 z" style="stroke: none; stroke-width: 1; stroke-dasharray: none; stroke-linecap: butt; stroke-linejoin: miter; stroke-miterlimit: 10; fill: rgb(0,0,0); fill-rule: nonzero; opacity: 1;" transform=" matrix(1 0 0 1 0 0) " stroke-linecap="round" />
	<path d="M 68.977 48.139 h -8.564 c -0.553 0 -1 -0.447 -1 -1 s 0.447 -1 1 -1 h 8.564 c 0.553 0 1 0.447 1 1 S 69.529 48.139 68.977 48.139 z" style="stroke: none; stroke-width: 1; stroke-dasharray: none; stroke-linecap: butt; stroke-linejoin: miter; stroke-miterlimit: 10; fill: rgb(0,0,0); fill-rule: nonzero; opacity: 1;" transform=" matrix(1 0 0 1 0 0) " stroke-linecap="round" />
	<path d="M 64.694 61.715 c -0.553 0 -1 -0.447 -1 -1 V 47.139 c 0 -0.553 0.447 -1 1 -1 s 1 0.447 1 1 v 13.576 C 65.694 61.268 65.247 61.715 64.694 61.715 z" style="stroke: none; stroke-width: 1; stroke-dasharray: none; stroke-linecap: butt; stroke-linejoin: miter; stroke-miterlimit: 10; fill: rgb(0,0,0); fill-rule: nonzero; opacity: 1;" transform=" matrix(1 0 0 1 0 0) " stroke-linecap="round" />
	<path d="M 51.715 61.715 h -1.259 c -2.064 0 -3.743 -1.632 -3.743 -3.638 c 0 -0.553 0.447 -1 1 -1 s 1 0.447 1 1 c 0 0.903 0.782 1.638 1.743 1.638 h 1.259 c 1.041 0 1.888 -0.797 1.888 -1.777 v -1.233 c 0 -0.98 -0.847 -1.777 -1.888 -1.777 h -1.113 c -2.145 0 -3.889 -1.694 -3.889 -3.777 v -1.233 c 0 -2.083 1.744 -3.777 3.889 -3.777 h 1.259 c 2.063 0 3.742 1.632 3.742 3.637 c 0 0.553 -0.447 1 -1 1 s -1 -0.447 -1 -1 c 0 -0.902 -0.781 -1.637 -1.742 -1.637 h -1.259 c -1.041 0 -1.889 0.797 -1.889 1.777 v 1.233 c 0 0.98 0.848 1.777 1.889 1.777 h 1.113 c 2.144 0 3.888 1.694 3.888 3.777 v 1.233 C 55.603 60.021 53.858 61.715 51.715 61.715 z" style="stroke: none; stroke-width: 1; stroke-dasharray: none; stroke-linecap: butt; stroke-linejoin: miter; stroke-miterlimit: 10; fill: rgb(0,0,0); fill-rule: nonzero; opacity: 1;" transform=" matrix(1 0 0 1 0 0) " stroke-linecap="round" />
	<path d="M 37.739 82.928 c -0.552 0 -1 -0.447 -1 -1 V 71.279 c 0 -1.063 -0.865 -1.928 -1.927 -1.928 h -2.572 c -1.063 0 -1.927 0.865 -1.927 1.928 v 10.648 c 0 0.553 -0.448 1 -1 1 s -1 -0.447 -1 -1 V 71.279 c 0 -2.166 1.762 -3.928 3.927 -3.928 h 2.572 c 2.166 0 3.927 1.762 3.927 3.928 v 10.648 C 38.739 82.48 38.291 82.928 37.739 82.928 z" style="stroke: none; stroke-width: 1; stroke-dasharray: none; stroke-linecap: butt; stroke-linejoin: miter; stroke-miterlimit: 10; fill: rgb(0,0,0); fill-rule: nonzero; opacity: 1;" transform=" matrix(1 0 0 1 0 0) " stroke-linecap="round" />
	<path d="M 37.739 76.14 h -8.427 c -0.552 0 -1 -0.447 -1 -1 s 0.448 -1 1 -1 h 8.427 c 0.552 0 1 0.447 1 1 S 38.291 76.14 37.739 76.14 z" style="stroke: none; stroke-width: 1; stroke-dasharray: none; stroke-linecap: butt; stroke-linejoin: miter; stroke-miterlimit: 10; fill: rgb(0,0,0); fill-rule: nonzero; opacity: 1;" transform=" matrix(1 0 0 1 0 0) " stroke-linecap="round" />
	<path d="M 58.991 82.928 c -0.553 0 -1 -0.447 -1 -1 V 68.352 c 0 -0.553 0.447 -1 1 -1 s 1 0.447 1 1 v 13.576 C 59.991 82.48 59.544 82.928 58.991 82.928 z" style="stroke: none; stroke-width: 1; stroke-dasharray: none; stroke-linecap: butt; stroke-linejoin: miter; stroke-miterlimit: 10; fill: rgb(0,0,0); fill-rule: nonzero; opacity: 1;" transform=" matrix(1 0 0 1 0 0) " stroke-linecap="round" />
	<path d="M 49.896 76.967 h -4.97 c -0.552 0 -1 -0.447 -1 -1 v -7.615 c 0 -0.553 0.448 -1 1 -1 h 4.97 c 2.01 0 3.645 1.636 3.645 3.646 v 2.324 C 53.54 75.331 51.905 76.967 49.896 76.967 z M 45.925 74.967 h 3.97 c 0.907 0 1.645 -0.738 1.645 -1.646 v -2.324 c 0 -0.907 -0.737 -1.646 -1.645 -1.646 h -3.97 V 74.967 z" style="stroke: none; stroke-width: 1; stroke-dasharray: none; stroke-linecap: butt; stroke-linejoin: miter; stroke-miterlimit: 10; fill: rgb(0,0,0); fill-rule: nonzero; opacity: 1;" transform=" matrix(1 0 0 1 0 0) " stroke-linecap="round" />
	<path d="M 44.925 82.928 c -0.552 0 -1 -0.447 -1 -1 v -5.961 c 0 -0.553 0.448 -1 1 -1 s 1 0.447 1 1 v 5.961 C 45.925 82.48 45.478 82.928 44.925 82.928 z" style="stroke: none; stroke-width: 1; stroke-dasharray: none; stroke-linecap: butt; stroke-linejoin: miter; stroke-miterlimit: 10; fill: rgb(0,0,0); fill-rule: nonzero; opacity: 1;" transform=" matrix(1 0 0 1 0 0) " stroke-linecap="round" />
	<path d="M 69.401 75.401 c -0.553 0 -1 -0.447 -1 -1 s 0.447 -1 1 -1 C 79.656 73.401 88 65.059 88 54.804 c 0 -7.14 -3.983 -13.537 -10.396 -16.694 c -0.312 -0.153 -0.521 -0.457 -0.554 -0.802 c -0.251 -2.616 -0.887 -5.168 -1.892 -7.587 c -0.212 -0.51 0.03 -1.095 0.54 -1.307 c 0.513 -0.212 1.096 0.03 1.308 0.54 c 1.01 2.433 1.674 4.991 1.977 7.614 C 85.793 40.145 90 47.081 90 54.803 C 90 66.161 80.76 75.401 69.401 75.401 z" style="stroke: none; stroke-width: 1; stroke-dasharray: none; stroke-linecap: butt; stroke-linejoin: miter; stroke-miterlimit: 10; fill: rgb(0,0,0); fill-rule: nonzero; opacity: 1;" transform=" matrix(1 0 0 1 0 0) " stroke-linecap="round" />
	<path d="M 20.599 75.401 C 9.241 75.401 0 66.161 0 54.804 c 0 -11.358 9.241 -20.599 20.599 -20.599 h 2.296 c 1.539 -7.625 6.174 -14.323 12.818 -18.475 c 0.468 -0.292 1.085 -0.149 1.378 0.318 c 0.292 0.468 0.15 1.085 -0.318 1.378 c -6.4 4 -10.796 10.542 -12.061 17.947 c -0.082 0.48 -0.499 0.832 -0.986 0.832 h -3.127 C 10.343 36.205 2 44.548 2 54.803 s 8.343 18.599 18.599 18.599 c 0.552 0 1 0.447 1 1 S 21.151 75.401 20.599 75.401 z" style="stroke: none; stroke-width: 1; stroke-dasharray: none; stroke-linecap: butt; stroke-linejoin: miter; stroke-miterlimit: 10; fill: rgb(0,0,0); fill-rule: nonzero; opacity: 1;" transform=" matrix(1 0 0 1 0 0) " stroke-linecap="round" />
	<path d="M 15.978 10.784 c -0.105 0 -0.208 -0.021 -0.305 -0.061 c -0.197 -0.081 -0.35 -0.235 -0.431 -0.431 c -0.043 -0.105 -0.127 -0.127 -0.189 -0.127 c -0.063 0 -0.146 0.022 -0.189 0.127 c -0.168 0.405 -0.635 0.599 -1.041 0.431 l -0.85 -0.352 c -0.406 -0.168 -0.599 -0.636 -0.431 -1.041 c 0.046 -0.11 -0.008 -0.187 -0.044 -0.223 c -0.045 -0.045 -0.12 -0.088 -0.224 -0.045 c -0.406 0.167 -0.873 -0.026 -1.042 -0.431 l -0.352 -0.849 c -0.168 -0.406 0.025 -0.873 0.431 -1.041 h 0 c 0.105 -0.043 0.127 -0.127 0.127 -0.189 c 0 -0.063 -0.022 -0.146 -0.126 -0.189 c -0.197 -0.081 -0.35 -0.235 -0.431 -0.431 c -0.082 -0.197 -0.082 -0.413 0 -0.61 l 0.352 -0.849 c 0.169 -0.406 0.636 -0.599 1.042 -0.431 c 0.105 0.043 0.179 0 0.223 -0.044 c 0.045 -0.045 0.088 -0.119 0.045 -0.224 c -0.081 -0.197 -0.081 -0.413 0 -0.61 c 0.082 -0.197 0.235 -0.35 0.431 -0.431 l 0.849 -0.352 c 0.406 -0.168 0.873 0.026 1.042 0.431 c 0.043 0.104 0.127 0.126 0.189 0.126 c 0.063 0 0.146 -0.022 0.189 -0.126 c 0.082 -0.197 0.235 -0.35 0.432 -0.432 c 0.197 -0.082 0.413 -0.081 0.61 0 l 0.849 0.352 c 0.197 0.082 0.35 0.235 0.432 0.431 c 0.082 0.197 0.082 0.414 0 0.61 c -0.043 0.104 0 0.179 0.044 0.223 c 0.045 0.045 0.119 0.088 0.223 0.045 c 0.197 -0.081 0.414 -0.081 0.61 0 c 0.197 0.082 0.35 0.235 0.432 0.432 l 0.351 0.849 c 0.082 0.197 0.082 0.413 0 0.61 c -0.082 0.197 -0.235 0.35 -0.432 0.432 c -0.104 0.043 -0.126 0.127 -0.126 0.189 c 0 0.062 0.022 0.146 0.127 0.189 c 0.197 0.081 0.35 0.235 0.431 0.432 c 0.082 0.197 0.082 0.413 0 0.61 l -0.352 0.849 c -0.081 0.197 -0.234 0.35 -0.431 0.431 c -0.197 0.081 -0.414 0.081 -0.61 0 c -0.105 -0.044 -0.179 0 -0.223 0.044 c -0.044 0.044 -0.088 0.119 -0.044 0.223 c 0.168 0.406 -0.025 0.873 -0.431 1.041 l -0.849 0.352 C 16.186 10.764 16.083 10.784 15.978 10.784 z M 15.053 9.651 c 0.232 0 0.529 0.117 0.664 0.444 c 0.029 0.07 0.083 0.124 0.153 0.153 c 0.07 0.029 0.147 0.029 0.217 0 l 0.849 -0.352 c 0.144 -0.06 0.213 -0.226 0.153 -0.37 c -0.136 -0.328 -0.008 -0.62 0.156 -0.784 c 0.164 -0.164 0.456 -0.291 0.783 -0.156 c 0.071 0.029 0.146 0.029 0.217 0 c 0.07 -0.029 0.124 -0.083 0.153 -0.153 l 0.352 -0.849 c 0.029 -0.07 0.029 -0.146 0 -0.216 c -0.029 -0.07 -0.083 -0.124 -0.153 -0.153 c -0.327 -0.136 -0.444 -0.432 -0.444 -0.664 c 0 -0.232 0.116 -0.529 0.444 -0.664 c 0.07 -0.029 0.124 -0.083 0.153 -0.153 c 0.029 -0.07 0.029 -0.147 0 -0.217 l -0.352 -0.849 c -0.029 -0.07 -0.083 -0.124 -0.153 -0.153 c -0.07 -0.029 -0.147 -0.029 -0.217 0 c -0.326 0.136 -0.619 0.009 -0.784 -0.156 c -0.164 -0.163 -0.291 -0.456 -0.155 -0.783 c 0.029 -0.07 0.029 -0.147 0 -0.217 c -0.029 -0.07 -0.083 -0.124 -0.153 -0.153 l -0.849 -0.352 c -0.071 -0.029 -0.146 -0.029 -0.217 0 c -0.07 0.029 -0.125 0.083 -0.153 0.153 c -0.135 0.327 -0.432 0.444 -0.664 0.444 s -0.529 -0.116 -0.664 -0.443 c -0.06 -0.144 -0.226 -0.213 -0.37 -0.153 L 13.17 3.206 c -0.07 0.029 -0.124 0.083 -0.153 0.153 c -0.029 0.07 -0.029 0.147 0 0.217 c 0.136 0.328 0.008 0.62 -0.157 0.784 c -0.163 0.164 -0.455 0.291 -0.783 0.155 c -0.144 -0.06 -0.31 0.009 -0.37 0.153 l -0.352 0.849 c -0.029 0.07 -0.029 0.147 0 0.216 c 0.029 0.07 0.083 0.125 0.153 0.153 c 0.328 0.136 0.444 0.432 0.444 0.665 c 0 0.232 -0.117 0.528 -0.444 0.664 L 11.41 6.978 l 0.098 0.237 c -0.144 0.06 -0.213 0.226 -0.153 0.37 l 0.352 0.849 c 0.06 0.144 0.227 0.213 0.37 0.153 c 0.327 -0.135 0.619 -0.008 0.783 0.156 c 0.164 0.163 0.292 0.455 0.156 0.783 c -0.06 0.144 0.009 0.31 0.153 0.37 l 0.849 0.352 c 0.144 0.06 0.31 -0.009 0.37 -0.153 C 14.524 9.768 14.82 9.651 15.053 9.651 z M 15.053 8.299 c -0.964 0 -1.748 -0.784 -1.748 -1.748 s 0.784 -1.748 1.748 -1.748 c 0.964 0 1.748 0.784 1.748 1.748 S 16.017 8.299 15.053 8.299 z M 15.053 5.317 c -0.681 0 -1.234 0.554 -1.234 1.234 s 0.554 1.234 1.234 1.234 c 0.68 0 1.234 -0.554 1.234 -1.234 S 15.733 5.317 15.053 5.317 z" style="stroke: none; stroke-width: 1; stroke-dasharray: none; stroke-linecap: butt; stroke-linejoin: miter; stroke-miterlimit: 10; fill: rgb(0,0,0); fill-rule: nonzero; opacity: 1;" transform=" matrix(3.89 0 0 3.89 -1.9444444444444287 -1.9444444444444287) " stroke-linecap="round" />
</g>
</symbol>

<symbol id="bootstrap" viewBox="0 0 256 256" preserveAspectRatio="xMinYMin meet"><path d="M0 222.991C0 241.223 14.779 256 33.009 256H222.99C241.223 256 256 241.221 256 222.991V33.01C256 14.777 241.221 0 222.991 0H33.01C14.777 0 0 14.779 0 33.009V222.99z" fill="#563D7C"/><path d="M106.158 113.238V76.985h31.911c3.04 0 5.97.253 8.792.76 2.822.506 5.319 1.41 7.49 2.713 2.17 1.303 3.907 3.112 5.21 5.427 1.302 2.316 1.954 5.283 1.954 8.9 0 6.513-1.954 11.217-5.862 14.111-3.907 2.895-8.9 4.342-14.979 4.342h-34.516zM72.075 50.5v155h75.112c6.947 0 13.713-.868 20.298-2.605 6.585-1.737 12.446-4.414 17.584-8.032 5.137-3.618 9.226-8.286 12.265-14.002 3.04-5.717 4.559-12.483 4.559-20.298 0-9.697-2.352-17.982-7.055-24.856-4.704-6.875-11.832-11.687-21.384-14.437 6.947-3.328 12.194-7.598 15.74-12.808 3.545-5.21 5.318-11.722 5.318-19.538 0-7.236-1.194-13.314-3.582-18.235-2.388-4.92-5.753-8.864-10.095-11.831-4.341-2.967-9.551-5.102-15.63-6.404-6.078-1.303-12.808-1.954-20.189-1.954H72.075zm34.083 128.515v-42.549h37.121c7.381 0 13.315 1.7 17.802 5.102 4.486 3.401 6.73 9.081 6.73 17.041 0 4.053-.688 7.381-2.063 9.986-1.375 2.605-3.22 4.668-5.536 6.187-2.315 1.52-4.993 2.605-8.032 3.257-3.04.65-6.223.976-9.552.976h-36.47z" fill="#FFF"/></symbol>

<symbol id="css" viewBox="0 0 512 512">
	<path fill="#264de4" d="M71.357 460.819L30.272 0h451.456l-41.129 460.746L255.724 512z"/>
	<path fill="#2965f1" d="M405.388 431.408l35.148-393.73H256v435.146z"/>
	<path fill="#ebebeb" d="M124.46 208.59l5.065 56.517H256V208.59zM119.419 150.715H256V94.197H114.281zM256 355.372l-.248.066-62.944-16.996-4.023-45.076h-56.736l7.919 88.741 115.772 32.14.26-.073z"/>
	<path fill="#fff" d="M255.805 208.59v56.517H325.4l-6.56 73.299-63.035 17.013v58.8l115.864-32.112.85-9.549 13.28-148.792 1.38-15.176 10.203-114.393H255.805v56.518h79.639L330.3 208.59z"/>
</symbol>

<symbol id="figma" viewBox="0 0 38 57" fill="none">
<g clip-path="url(#clip0_1_137)">
<path d="M19 28.5C19 25.9804 20.0009 23.5641 21.7825 21.7825C23.5641 20.0009 25.9804 19 28.5 19C31.0196 19 33.4359 20.0009 35.2175 21.7825C36.9991 23.5641 38 25.9804 38 28.5C38 31.0196 36.9991 33.4359 35.2175 35.2175C33.4359 36.9991 31.0196 38 28.5 38C25.9804 38 23.5641 36.9991 21.7825 35.2175C20.0009 33.4359 19 31.0196 19 28.5Z" fill="#1ABCFE"/>
<path d="M0 47.5C0 44.9804 1.00089 42.5641 2.78249 40.7825C4.56408 39.0009 6.98044 38 9.5 38H19V47.5C19 50.0196 17.9991 52.4359 16.2175 54.2175C14.4359 55.9991 12.0196 57 9.5 57C6.98044 57 4.56408 55.9991 2.78249 54.2175C1.00089 52.4359 0 50.0196 0 47.5H0Z" fill="#0ACF83"/>
<path d="M19 0V19H28.5C31.0196 19 33.4359 17.9991 35.2175 16.2175C36.9991 14.4359 38 12.0196 38 9.5C38 6.98044 36.9991 4.56408 35.2175 2.78249C33.4359 1.00089 31.0196 0 28.5 0L19 0Z" fill="#FF7262"/>
<path d="M0 9.5C0 12.0196 1.00089 14.4359 2.78249 16.2175C4.56408 17.9991 6.98044 19 9.5 19H19V0H9.5C6.98044 0 4.56408 1.00089 2.78249 2.78249C1.00089 4.56408 0 6.98044 0 9.5H0Z" fill="#F24E1E"/>
<path d="M0 28.5C0 31.0196 1.00089 33.4359 2.78249 35.2175C4.56408 36.9991 6.98044 38 9.5 38H19V19H9.5C6.98044 19 4.56408 20.0009 2.78249 21.7825C1.00089 23.5641 0 25.9804 0 28.5H0Z" fill="#A259FF"/>
</g>
<defs>
<clipPath id="clip0_1_137">
<rect width="38" height="57" fill="white"/>
</clipPath>
</defs>
</symbol>

<symbol id="github"><path fill-rule="evenodd" clip-rule="evenodd" d="M48.854 0C21.839 0 0 22 0 49.217c0 21.756 13.993 40.172 33.405 46.69 2.427.49 3.316-1.059 3.316-2.362 0-1.141-.08-5.052-.08-9.127-13.59 2.934-16.42-5.867-16.42-5.867-2.184-5.704-5.42-7.17-5.42-7.17-4.448-3.015.324-3.015.324-3.015 4.934.326 7.523 5.052 7.523 5.052 4.367 7.496 11.404 5.378 14.235 4.074.404-3.178 1.699-5.378 3.074-6.6-10.839-1.141-22.243-5.378-22.243-24.283 0-5.378 1.94-9.778 5.014-13.2-.485-1.222-2.184-6.275.486-13.038 0 0 4.125-1.304 13.426 5.052a46.97 46.97 0 0 1 12.214-1.63c4.125 0 8.33.571 12.213 1.63 9.302-6.356 13.427-5.052 13.427-5.052 2.67 6.763.97 11.816.485 13.038 3.155 3.422 5.015 7.822 5.015 13.2 0 18.905-11.404 23.06-22.324 24.283 1.78 1.548 3.316 4.481 3.316 9.126 0 6.6-.08 11.897-.08 13.526 0 1.304.89 2.853 3.316 2.364 19.412-6.52 33.405-24.935 33.405-46.691C97.707 22 75.788 0 48.854 0z" fill="#24292f"/></symbol>

  <symbol id="html" viewBox="0 0 512 512">
    <path fill="#E34F26" d="M71,460 L30,0 481,0 440,460 255,512"/>
    <path fill="#EF652A" d="M256,472 L405,431 440,37 256,37"/>
    <path fill="#EBEBEB" d="M256,208 L181,208 176,150 256,150 256,94 255,94 114,94 115,109 129,265 256,265zM256,355 L255,355 192,338 188,293 158,293 132,293 139,382 255,414 256,414z"/>
    <path fill="#FFF" d="M255,208 L255,265 325,265 318,338 255,355 255,414 371,382 372,372 385,223 387,208 371,208zM255,94 L255,129 255,150 255,150 392,150 392,150 392,150 393,138 396,109 397,94z"/>
  </symbol>

<symbol id="js" viewBox="0 0 630 630">
<rect width="630" height="630" fill="#f7df1e"/>
<path d="m423.2 492.19c12.69 20.72 29.2 35.95 58.4 35.95 24.53 0 40.2-12.26 40.2-29.2 0-20.3-16.1-27.49-43.1-39.3l-14.8-6.35c-42.72-18.2-71.1-41-71.1-89.2 0-44.4 33.83-78.2 86.7-78.2 37.64 0 64.7 13.1 84.2 47.4l-46.1 29.6c-10.15-18.2-21.1-25.37-38.1-25.37-17.34 0-28.33 11-28.33 25.37 0 17.76 11 24.95 36.4 35.95l14.8 6.34c50.3 21.57 78.7 43.56 78.7 93 0 53.3-41.87 82.5-98.1 82.5-54.98 0-90.5-26.2-107.88-60.54zm-209.13 5.13c9.3 16.5 17.76 30.45 38.1 30.45 19.45 0 31.72-7.61 31.72-37.2v-201.3h59.2v202.1c0 61.3-35.94 89.2-88.4 89.2-47.4 0-74.85-24.53-88.81-54.075z"/>
</symbol>

<symbol id="nodejs" viewBox="0 0 256 289" preserveAspectRatio="xMidYMid">
    <g>
        <path d="M127.999999,288.463771 C124.024844,288.463771 120.314699,287.403728 116.869564,285.548656 L81.6231884,264.612838 C76.32298,261.697724 78.9730854,260.637682 80.5631458,260.107661 C87.7184259,257.72257 89.0434775,257.192547 96.4637688,252.952381 C97.2587979,252.422361 98.3188405,252.687372 99.1138718,253.217392 L126.144927,269.383024 C127.20497,269.913045 128.530021,269.913045 129.325053,269.383024 L235.064182,208.165634 C236.124225,207.635611 236.654245,206.575571 236.654245,205.250519 L236.654245,83.0807467 C236.654245,81.7556929 236.124225,80.6956526 235.064182,80.1656324 L129.325053,19.2132506 C128.26501,18.6832305 126.939959,18.6832305 126.144927,19.2132506 L20.4057954,80.1656324 C19.3457551,80.6956526 18.8157349,82.0207041 18.8157349,83.0807467 L18.8157349,205.250519 C18.8157349,206.31056 19.3457551,207.635611 20.4057954,208.165634 L49.2919247,224.861286 C64.9275364,232.811595 74.7329196,223.536234 74.7329196,214.260871 L74.7329196,93.681159 C74.7329196,92.0910985 76.0579711,90.5010358 77.9130428,90.5010358 L91.4285716,90.5010358 C93.0186343,90.5010358 94.6086948,91.8260873 94.6086948,93.681159 L94.6086948,214.260871 C94.6086948,235.196689 83.2132512,247.387164 63.3374737,247.387164 C57.2422362,247.387164 52.4720502,247.387164 38.9565214,240.761906 L11.1304347,224.861286 C4.24016581,220.886129 5.68434189e-14,213.46584 5.68434189e-14,205.515528 L5.68434189e-14,83.3457557 C5.68434189e-14,75.3954465 4.24016581,67.9751552 11.1304347,64.0000006 L116.869564,2.78260752 C123.494824,-0.927535841 132.505176,-0.927535841 139.130436,2.78260752 L244.869565,64.0000006 C251.759834,67.9751552 256,75.3954465 256,83.3457557 L256,205.515528 C256,213.46584 251.759834,220.886129 244.869565,224.861286 L139.130436,286.078676 C135.685299,287.668739 131.710145,288.463771 127.999999,288.463771 L127.999999,288.463771 Z M160.596274,204.455488 C114.219461,204.455488 104.679089,183.254659 104.679089,165.233955 C104.679089,163.643893 106.004141,162.053832 107.859212,162.053832 L121.639752,162.053832 C123.229813,162.053832 124.554864,163.113872 124.554864,164.703935 C126.674947,178.749484 132.770187,185.639753 160.861283,185.639753 C183.122154,185.639753 192.662526,180.604556 192.662526,168.67909 C192.662526,161.788821 190.012423,156.753624 155.296065,153.308489 C126.409938,150.393375 108.389235,144.033126 108.389235,120.977226 C108.389235,99.5113875 126.409938,86.7908901 156.621119,86.7908901 C190.542443,86.7908901 207.238095,98.4513472 209.358178,123.89234 C209.358178,124.687371 209.093167,125.482403 208.563147,126.277434 C208.033127,126.807454 207.238095,127.337474 206.443064,127.337474 L192.662526,127.337474 C191.337475,127.337474 190.012423,126.277434 189.747412,124.952382 C186.567289,110.376813 178.351966,105.606625 156.621119,105.606625 C132.240165,105.606625 129.325053,114.086957 129.325053,120.447205 C129.325053,128.132506 132.770187,130.5176 165.631471,134.757766 C198.227744,138.997931 213.598344,145.093169 213.598344,167.884058 C213.333333,191.20497 194.252589,204.455488 160.596274,204.455488 L160.596274,204.455488 Z" fill="#539E43"></path>
    </g>
</symbol>

<symbol id="react" viewBox="-11.5 -10.23174 23 20.46348">
  <title>React Logo</title>
  <circle cx="0" cy="0" r="2.05" fill="#61dafb"/>
  <g stroke="#61dafb" stroke-width="1" fill="none">
    <ellipse rx="11" ry="4.2"/>
    <ellipse rx="11" ry="4.2" transform="rotate(60)"/>
    <ellipse rx="11" ry="4.2" transform="rotate(120)"/>
  </g>
</symbol>

<symbol id="sql" viewBox="-8.78 0 70 70" xmlns:dc="http://purl.org/dc/elements/1.1/" xmlns:cc="http://creativecommons.org/ns#" xmlns:rdf="http://www.w3.org/1999/02/22-rdf-syntax-ns#">
    <metadata>
        <rdf:RDF>
            <cc:Work>
                <dc:subject>
                    Data
                </dc:subject>
                <dc:identifier>
                    sql-database-generic
                </dc:identifier>
                <dc:title>
                    SQL Database (Generic)
                </dc:title>
                <dc:format>
                    image/svg+xml
                </dc:format>
                <dc:publisher>
                    Amido Limited
                </dc:publisher>
                <dc:creator>
                    Richard Slater
                </dc:creator>
                <dc:type rdf:resource="http://purl.org/dc/dcmitype/StillImage"/>
            </cc:Work>
        </rdf:RDF>
    </metadata>
    <path d="m 852.97077,1013.9363 c -6.55238,-0.4723 -13.02857,-2.1216 -17.00034,-4.3296 -2.26232,-1.2576 -3.98589,-2.8032 -4.66223,-4.1807 l -0.4024,-0.8196 0,-25.70807 0,-25.7081 0.31843,-0.6465 c 1.42297,-2.889 5.96432,-5.4935 12.30378,-7.0562 2.15195,-0.5305 5.2586,-1.0588 7.79304,-1.3252 2.58797,-0.2721 9.44765,-0.2307 12.02919,0.073 6.86123,0.8061 12.69967,2.6108 16.29768,5.0377 1.38756,0.9359 2.81137,2.4334 3.29371,3.4642 l 0.41358,0.8838 -0.0354,25.6303 -0.0354,25.63047 -0.33195,0.6744 c -0.18257,0.3709 -0.73406,1.1007 -1.22553,1.6216 -2.99181,3.1715 -9.40919,5.5176 -17.8267,6.5172 -1.71567,0.2038 -9.16916,0.3686 -10.92937,0.2417 z m 12.07501,-22.02839 c -0.0252,-0.0657 -1.00472,-0.93831 -2.17671,-1.93922 -1.17199,-1.00091 -2.18138,-1.86687 -2.24309,-1.92436 -0.0617,-0.0575 0.15481,-0.26106 0.48117,-0.45237 0.32635,-0.19131 0.95163,-0.7235 1.3895,-1.18265 1.2805,-1.34272 1.88466,-3.00131 1.88466,-5.17388 0,-2.1388 -0.65162,-3.8645 -1.95671,-5.1818 -1.31533,-1.3278 -2.82554,-1.8983 -5.02486,-1.8983 -3.39007,0 -5.99368,1.9781 -6.82468,5.1851 -0.28586,1.1031 -0.28432,3.33211 0.003,4.31023 0.74941,2.55136 2.79044,4.40434 5.33062,4.83946 0.8596,0.14724 0.97605,0.21071 1.5621,0.85144 0.34829,0.38078 1.06301,1.14085 1.58827,1.68904 l 0.95501,0.9967 2.53878,0 c 1.39633,0 2.51816,-0.0537 2.49296,-0.11939 z m -8.70653,-7.10848 c -0.61119,-0.31868 -0.84225,-0.56599 -1.19079,-1.27453 -0.26919,-0.54724 -0.31522,-0.85851 -0.31824,-2.15197 -0.003,-1.3143 0.0388,-1.5983 0.31987,-2.169 0.45985,-0.9339 1.09355,-1.376 2.07384,-1.4469 1.36454,-0.099 2.15217,0.5707 2.56498,2.1801 0.50612,1.97321 -0.0504,4.07107 -1.26471,4.76729 -0.63707,0.36527 -1.58737,0.40659 -2.18495,0.095 z m -11.25315,3.66269 c 2.66179,-0.5048 4.1728,-2.0528 4.1728,-4.27495 0,-1.97137 -0.97548,-3.12004 -3.6716,-4.32364 -1.54338,-0.689 -2.10241,-1.1215 -2.10241,-1.6268 0,-0.4188 0.53052,-0.8777 1.14813,-0.993 0.60302,-0.1126 2.20237,0.1652 3.14683,0.5467 l 0.79167,0.3198 0,-1.7524 0,-1.7525 -0.85923,-0.1906 c -0.53103,-0.1178 -1.64689,-0.1885 -2.92137,-0.1849 -1.80528,0 -2.15881,0.044 -2.83818,0.3138 -1.98445,0.7878 -2.92613,2.1298 -2.91107,4.1485 0.0141,1.8898 1.01108,3.06864 3.49227,4.12912 1.46399,0.62572 2.05076,1.10218 2.05076,1.66522 0,1.1965 -1.99362,1.34375 -4.10437,0.30315 -0.57805,-0.28498 -1.09739,-0.54137 -1.1541,-0.56976 -0.0567,-0.0284 -0.10311,0.79023 -0.10311,1.81917 0,1.86239 0.002,1.87137 0.33919,1.99974 1.26979,0.48278 4.07626,0.69787 5.52379,0.42335 z m 30.4308,-1.72766 0,-1.58098 -2.40584,0 -2.40583,0 0,-5.43035 0,-5.4303 -2.13089,0 -2.13088,0 0,7.0113 0,7.01131 4.53672,0 4.53672,0 0,-1.58098 z m -14.84745,-27.70503 c 4.23447,-0.2937 7.4086,-0.8482 10.20178,-1.7821 2.78264,-0.9304 4.42643,-2.0562 4.79413,-3.2834 0.14166,-0.4729 0.13146,-0.6523 -0.0665,-1.1708 -0.88775,-2.3245 -5.84694,-4.1104 -13.42493,-4.8345 -3.24154,-0.3098 -9.13671,-0.2094 -12.22745,0.2081 -4.71604,0.6372 -8.54333,1.8208 -10.2451,3.1683 -3.44251,2.726 0.19793,5.7242 8.66397,7.1354 3.67084,0.6119 8.42674,0.828 12.30414,0.559 z" fill="#00bcf2" transform="translate(-830.906 -943.981)"/>
</symbol>

<symbol xmlns="http://www.w3.org/2000/svg" id="plus-icon" viewBox="0 0 18 18" fill="none"><path d="M9 2V16M2 9H16" stroke="currentColor" stroke-linecap="round" stroke-linejoin="round"></path></symbol>

<symbol id="guarantee" viewBox="0 0 64 64"  xmlns="http://www.w3.org/2000/svg">
<g data-name="Stroke copy 3" id="Stroke_copy_3">
<path d="M42,47A24,24,0,0,1,18,23V7H11V51a4,4,0,0,0,4,4H51V47Z" style="fill:#cff09e"/>
<path d="M15,3H51a0,0,0,0,1,0,0v8a0,0,0,0,1,0,0H15a4,4,0,0,1-4-4V7a4,4,0,0,1,4-4Z" style="fill:#a8dba8"/>
<rect height="6" style="fill:#79bd9a" width="22" x="21" y="19"/>
<circle cx="47" cy="47" r="14" style="fill:#a8dba8"/>
</g>
<g data-name="Stroke Close copy 3" id="Stroke_Close_copy_3">
<path d="M17,8H27a1,1,0,0,0,0-2H17a1,1,0,0,0,0,2Z" style="fill:#3b8686"/>
<path d="M52,32.88V3a1,1,0,0,0-1-1H15a5,5,0,0,0-5,5V51a5,5,0,0,0,5,5H35A15,15,0,1,0,52,32.88ZM15,4H50V6H31a1,1,0,0,0,0,2H50v2H15a3,3,0,0,1,0-6Zm0,50a3,3,0,0,1-3-3V11a4.92,4.92,0,0,0,3,1H50V32.3a14.82,14.82,0,0,0-3-.3A15,15,0,0,0,33.74,54Zm32,6A13,13,0,1,1,60,47,13,13,0,0,1,47,60Z" style="fill:#3b8686"/>
<path d="M53.85,41.22,43.24,51.83l-3.53-3.54a1,1,0,0,0-1.42,1.42L42.54,54a1,1,0,0,0,.7.29A1,1,0,0,0,44,54L55.26,42.64a1,1,0,0,0,0-1.42A1,1,0,0,0,53.85,41.22Z" style="fill:#3b8686"/>
<path d="M21,26H43a1,1,0,0,0,1-1V19a1,1,0,0,0-1-1H21a1,1,0,0,0-1,1v6A1,1,0,0,0,21,26Zm1-6H42v4H22Z" style="fill:#3b8686"/>
<path d="M21,32H37a1,1,0,0,0,0-2H21a1,1,0,0,0,0,2Z" style="fill:#3b8686"/>
<path d="M31,36H21a1,1,0,0,0,0,2H31a1,1,0,0,0,0-2Z" style="fill:#3b8686"/>
<path d="M27,42H21a1,1,0,0,0,0,2h6a1,1,0,0,0,0-2Z" style="fill:#3b8686"/>
</g>
</symbol>

</svg>
